solid alca_segura_sensor
facet normal 3.74321007265757e-17 -1.3924835026613265e-16 -1.0
  outer loop
    vertex 25.28619171755318 17.478937082877888 4.511947296718592e-14
    vertex 18.78619171755318 13.119803284750256 4.864442182395123e-14
    vertex 18.78619171755318 17.478937082877888 4.5824455341403336e-14
  endloop
endfacet
facet normal 3.74321007265757e-17 -1.3924835026613265e-16 -1.0
  outer loop
    vertex 18.78619171755318 13.119803284750256 4.864442182395123e-14
    vertex 25.28619171755318 17.478937082877888 4.511947296718592e-14
    vertex 19.932754397750944 11.978937082877893 4.7939430203314254e-14
  endloop
endfacet
facet normal 3.74321007265757e-17 -1.3924835026613265e-16 -1.0
  outer loop
    vertex 18.78619171755318 13.119803284750256 4.864442182395123e-14
    vertex 19.932754397750944 11.978937082877893 4.7939430203314254e-14
    vertex 19.367459819517535 11.259291031224041 4.7939430203314254e-14
  endloop
endfacet
facet normal 3.74321007265757e-17 -1.3924835026613265e-16 -1.0
  outer loop
    vertex 19.932754397750944 11.978937082877893 4.7939430203314254e-14
    vertex 25.28619171755318 17.478937082877888 4.511947296718592e-14
    vertex 25.28619171755318 11.978937082877893 4.511946372076636e-14
  endloop
endfacet
facet normal 3.74321007265757e-17 -1.3924835026613265e-16 -1.0
  outer loop
    vertex 11.786191717553134 17.478937082877888 4.5824455341403336e-14
    vertex 5.2861917175531286 11.978937082877893 4.511946372076636e-14
    vertex 5.2861917175531286 17.478937082877888 4.511947296718592e-14
  endloop
endfacet
facet normal 3.74321007265757e-17 -1.3924835026613265e-16 -1.0
  outer loop
    vertex 5.2861917175531286 11.978937082877893 4.511946372076636e-14
    vertex 11.786191717553134 17.478937082877888 4.5824455341403336e-14
    vertex 10.639629037355364 11.978937082877893 4.6529446962040307e-14
  endloop
endfacet
facet normal 3.74321007265757e-17 -1.3924835026613265e-16 -1.0
  outer loop
    vertex 10.639629037355364 11.978937082877893 4.6529446962040307e-14
    vertex 11.786191717553134 17.478937082877888 4.5824455341403336e-14
    vertex 11.204923615588774 11.259291031224041 4.6529446962040307e-14
  endloop
endfacet
facet normal 3.74321007265757e-17 -1.3924835026613265e-16 -1.0
  outer loop
    vertex 11.204923615588774 11.259291031224041 4.6529446962040307e-14
    vertex 11.786191717553134 17.478937082877888 4.5824455341403336e-14
    vertex 11.786191717553134 13.119803284750256 4.5824455341403336e-14
  endloop
endfacet
facet normal 3.74321007265757e-17 -1.3924835026613265e-16 -1.0
  outer loop
    vertex 11.204923615588774 11.259291031224041 4.6529446962040307e-14
    vertex 11.786191717553134 13.119803284750256 4.5824455341403336e-14
    vertex 11.880457820380533 10.641956488210758 4.6529446962040307e-14
  endloop
endfacet
facet normal 3.74321007265757e-17 -1.3924835026613265e-16 -1.0
  outer loop
    vertex 11.880457820380533 10.641956488210758 4.6529446962040307e-14
    vertex 11.786191717553134 13.119803284750256 4.5824455341403336e-14
    vertex 12.993066357157597 11.978937082877893 4.5824455341403336e-14
  endloop
endfacet
facet normal 3.74321007265757e-17 -1.3924835026613265e-16 -1.0
  outer loop
    vertex 11.880457820380533 10.641956488210758 4.6529446962040307e-14
    vertex 12.993066357157597 11.978937082877893 4.5824455341403336e-14
    vertex 12.6479847155816 10.143608351880273 4.6529446962040307e-14
  endloop
endfacet
facet normal 3.74321007265757e-17 -1.3924835026613265e-16 -1.0
  outer loop
    vertex 12.6479847155816 10.143608351880273 4.6529446962040307e-14
    vertex 12.993066357157597 11.978937082877893 4.5824455341403336e-14
    vertex 13.486772539350676 9.77770756404593 4.6529446962040307e-14
  endloop
endfacet
facet normal 3.74321007265757e-17 -1.3924835026613265e-16 -1.0
  outer loop
    vertex 13.486772539350676 9.77770756404593 4.6529446962040307e-14
    vertex 12.993066357157597 11.978937082877893 4.5824455341403336e-14
    vertex 13.138787521639715 11.841185947839024 4.5824455341403336e-14
  endloop
endfacet
facet normal 3.74321007265757e-17 -1.3924835026613265e-16 -1.0
  outer loop
    vertex 13.486772539350676 9.77770756404593 4.6529446962040307e-14
    vertex 13.138787521639715 11.841185947839024 4.5824455341403336e-14
    vertex 13.518082273644715 11.56339433486758 4.5824455341403336e-14
  endloop
endfacet
facet normal 3.74321007265757e-17 -1.3924835026613265e-16 -1.0
  outer loop
    vertex 13.486772539350676 9.77770756404593 4.6529446962040307e-14
    vertex 13.518082273644715 11.56339433486758 4.5824455341403336e-14
    vertex 14.374164692281935 9.554137515163939 4.6529446962040307e-14
  endloop
endfacet
facet normal 3.74321007265757e-17 -1.3924835026613265e-16 -1.0
  outer loop
    vertex 14.374164692281935 9.554137515163939 4.6529446962040307e-14
    vertex 13.518082273644715 11.56339433486758 4.5824455341403336e-14
    vertex 13.929086588488307 11.335122255287612 4.5824455341403336e-14
  endloop
endfacet
facet normal 3.74321007265757e-17 -1.3924835026613265e-16 -1.0
  outer loop
    vertex 14.374164692281935 9.554137515163939 4.6529446962040307e-14
    vertex 13.929086588488307 11.335122255287612 4.5824455341403336e-14
    vertex 14.365371002564048 11.159940637615017 4.5824455341403336e-14
  endloop
endfacet
facet normal 3.74321007265757e-17 -1.3924835026613265e-16 -1.0
  outer loop
    vertex 14.374164692281935 9.554137515163939 4.6529446962040307e-14
    vertex 14.365371002564048 11.159940637615017 4.5824455341403336e-14
    vertex 14.820110588101015 11.04058990036769 4.5824455341403336e-14
  endloop
endfacet
facet normal 3.74321007265757e-17 -1.3924835026613265e-16 -1.0
  outer loop
    vertex 14.374164692281935 9.554137515163939 4.6529446962040307e-14
    vertex 14.820110588101015 11.04058990036769 4.5824455341403336e-14
    vertex 15.286191717553152 9.478937082877898 4.511946372076636e-14
  endloop
endfacet
facet normal 3.74321007265757e-17 -1.3924835026613265e-16 -1.0
  outer loop
    vertex 15.286191717553152 9.478937082877898 4.511946372076636e-14
    vertex 14.820110588101015 11.04058990036769 4.5824455341403336e-14
    vertex 15.286191717553152 10.978937082877895 4.5824455341403336e-14
  endloop
endfacet
facet normal 3.74321007265757e-17 -1.3924835026613265e-16 -1.0
  outer loop
    vertex 15.286191717553152 9.478937082877898 4.511946372076636e-14
    vertex 15.286191717553152 10.978937082877895 4.5824455341403336e-14
    vertex 15.752272847005289 11.04058990036769 4.5824455341403336e-14
  endloop
endfacet
facet normal 3.74321007265757e-17 -1.3924835026613265e-16 -1.0
  outer loop
    vertex 15.286191717553152 9.478937082877898 4.511946372076636e-14
    vertex 15.752272847005289 11.04058990036769 4.5824455341403336e-14
    vertex 16.198218742824363 9.554137515163939 4.7939430203314254e-14
  endloop
endfacet
facet normal 3.74321007265757e-17 -1.3924835026613265e-16 -1.0
  outer loop
    vertex 16.198218742824363 9.554137515163939 4.7939430203314254e-14
    vertex 15.752272847005289 11.04058990036769 4.5824455341403336e-14
    vertex 16.20701243254225 11.159940637615017 4.441447210012938e-14
  endloop
endfacet
facet normal 3.74321007265757e-17 -1.3924835026613265e-16 -1.0
  outer loop
    vertex 16.198218742824363 9.554137515163939 4.7939430203314254e-14
    vertex 16.20701243254225 11.159940637615017 4.441447210012938e-14
    vertex 17.085610895755618 9.77770756404593 4.7939430203314254e-14
  endloop
endfacet
facet normal 3.74321007265757e-17 -1.3924835026613265e-16 -1.0
  outer loop
    vertex 17.085610895755618 9.77770756404593 4.7939430203314254e-14
    vertex 16.20701243254225 11.159940637615017 4.441447210012938e-14
    vertex 16.643296846617996 11.335122255287612 4.441447210012938e-14
  endloop
endfacet
facet normal 3.74321007265757e-17 -1.3924835026613265e-16 -1.0
  outer loop
    vertex 17.085610895755618 9.77770756404593 4.7939430203314254e-14
    vertex 16.643296846617996 11.335122255287612 4.441447210012938e-14
    vertex 17.054301161461588 11.56339433486758 4.441447210012938e-14
  endloop
endfacet
facet normal 3.74321007265757e-17 -1.3924835026613265e-16 -1.0
  outer loop
    vertex 17.085610895755618 9.77770756404593 4.7939430203314254e-14
    vertex 17.054301161461588 11.56339433486758 4.441447210012938e-14
    vertex 17.43359591346658 11.841185947839024 4.441447210012938e-14
  endloop
endfacet
facet normal 3.74321007265757e-17 -1.3924835026613265e-16 -1.0
  outer loop
    vertex 17.085610895755618 9.77770756404593 4.7939430203314254e-14
    vertex 17.43359591346658 11.841185947839024 4.441447210012938e-14
    vertex 17.92439871952471 10.143608351880273 4.7939430203314254e-14
  endloop
endfacet
facet normal 3.74321007265757e-17 -1.3924835026613265e-16 -1.0
  outer loop
    vertex 17.92439871952471 10.143608351880273 4.7939430203314254e-14
    vertex 17.43359591346658 11.841185947839024 4.441447210012938e-14
    vertex 17.579317077948712 11.978937082877893 4.441447210012938e-14
  endloop
endfacet
facet normal 3.74321007265757e-17 -1.3924835026613265e-16 -1.0
  outer loop
    vertex 17.92439871952471 10.143608351880273 4.7939430203314254e-14
    vertex 17.579317077948712 11.978937082877893 4.441447210012938e-14
    vertex 18.78619171755318 13.119803284750256 4.864442182395123e-14
  endloop
endfacet
facet normal 3.74321007265757e-17 -1.3924835026613265e-16 -1.0
  outer loop
    vertex 17.92439871952471 10.143608351880273 4.7939430203314254e-14
    vertex 18.78619171755318 13.119803284750256 4.864442182395123e-14
    vertex 18.69192561472578 10.641956488210758 4.7939430203314254e-14
  endloop
endfacet
facet normal 3.74321007265757e-17 -1.3924835026613265e-16 -1.0
  outer loop
    vertex 18.69192561472578 10.641956488210758 4.7939430203314254e-14
    vertex 18.78619171755318 13.119803284750256 4.864442182395123e-14
    vertex 19.367459819517535 11.259291031224041 4.7939430203314254e-14
  endloop
endfacet
facet normal -0.0 1.0 -0.0
  outer loop
    vertex 18.78619171755318 17.478937082877888 4.5824455341403336e-14
    vertex 21.897963149899397 17.478937082877888 0.5511112605664399
    vertex 22.28619171755318 17.478937082877888 0.5000000000000421
  endloop
endfacet
facet normal -0.0 1.0 -0.0
  outer loop
    vertex 21.897963149899397 17.478937082877888 0.5511112605664399
    vertex 18.78619171755318 17.478937082877888 4.5824455341403336e-14
    vertex 21.536191717553173 17.478937082877888 0.7009618943233846
  endloop
endfacet
facet normal -0.0 1.0 -0.0
  outer loop
    vertex 21.536191717553173 17.478937082877888 0.7009618943233846
    vertex 18.78619171755318 17.478937082877888 4.5824455341403336e-14
    vertex 21.22553154577335 17.478937082877888 0.9393398282202216
  endloop
endfacet
facet normal -0.0 1.0 -0.0
  outer loop
    vertex 21.22553154577335 17.478937082877888 0.9393398282202216
    vertex 18.78619171755318 17.478937082877888 4.5824455341403336e-14
    vertex 18.78619171755318 17.478937082877888 4.000000000000044
  endloop
endfacet
facet normal -0.0 1.0 -0.0
  outer loop
    vertex 21.22553154577335 17.478937082877888 0.9393398282202216
    vertex 18.78619171755318 17.478937082877888 4.000000000000044
    vertex 20.98715361187651 17.478937082877888 1.2500000000000435
  endloop
endfacet
facet normal -0.0 1.0 -0.0
  outer loop
    vertex 20.98715361187651 17.478937082877888 1.2500000000000435
    vertex 18.78619171755318 17.478937082877888 4.000000000000044
    vertex 20.83730297811957 17.478937082877888 1.6117714323462629
  endloop
endfacet
facet normal -0.0 1.0 -0.0
  outer loop
    vertex 20.83730297811957 17.478937082877888 1.6117714323462629
    vertex 18.78619171755318 17.478937082877888 4.000000000000044
    vertex 20.786191717553177 17.478937082877888 2.000000000000045
  endloop
endfacet
facet normal -0.0 1.0 -0.0
  outer loop
    vertex 20.786191717553177 17.478937082877888 2.000000000000045
    vertex 18.78619171755318 17.478937082877888 4.000000000000044
    vertex 20.83730297811957 17.478937082877888 2.388228567653828
  endloop
endfacet
facet normal -0.0 1.0 -0.0
  outer loop
    vertex 20.83730297811957 17.478937082877888 2.388228567653828
    vertex 18.78619171755318 17.478937082877888 4.000000000000044
    vertex 20.98715361187651 17.478937082877888 2.750000000000047
  endloop
endfacet
facet normal -0.0 1.0 -0.0
  outer loop
    vertex 20.98715361187651 17.478937082877888 2.750000000000047
    vertex 18.78619171755318 17.478937082877888 4.000000000000044
    vertex 21.22553154577335 17.478937082877888 3.0606601717798685
  endloop
endfacet
facet normal -0.0 1.0 -0.0
  outer loop
    vertex 21.22553154577335 17.478937082877888 3.0606601717798685
    vertex 18.78619171755318 17.478937082877888 4.000000000000044
    vertex 21.536191717553173 17.478937082877888 3.299038105676706
  endloop
endfacet
facet normal -0.0 1.0 -0.0
  outer loop
    vertex 21.536191717553173 17.478937082877888 3.299038105676706
    vertex 18.78619171755318 17.478937082877888 4.000000000000044
    vertex 21.897963149899397 17.478937082877888 3.44888873943365
  endloop
endfacet
facet normal -0.0 1.0 -0.0
  outer loop
    vertex 21.897963149899397 17.478937082877888 3.44888873943365
    vertex 18.78619171755318 17.478937082877888 4.000000000000044
    vertex 22.28619171755318 17.478937082877888 3.500000000000048
  endloop
endfacet
facet normal -0.0 1.0 -0.0
  outer loop
    vertex 25.28619171755318 17.478937082877888 4.511947296718592e-14
    vertex 23.585229823229838 17.478937082877888 1.250000000000043
    vertex 25.28619171755318 17.478937082877888 4.000000000000044
  endloop
endfacet
facet normal -0.0 1.0 -0.0
  outer loop
    vertex 23.585229823229838 17.478937082877888 1.250000000000043
    vertex 25.28619171755318 17.478937082877888 4.511947296718592e-14
    vertex 23.346851889333 17.478937082877888 0.9393398282202216
  endloop
endfacet
facet normal -0.0 1.0 -0.0
  outer loop
    vertex 23.346851889333 17.478937082877888 0.9393398282202216
    vertex 25.28619171755318 17.478937082877888 4.511947296718592e-14
    vertex 23.036191717553187 17.478937082877888 0.7009618943233845
  endloop
endfacet
facet normal -0.0 1.0 -0.0
  outer loop
    vertex 23.036191717553187 17.478937082877888 0.7009618943233845
    vertex 25.28619171755318 17.478937082877888 4.511947296718592e-14
    vertex 22.674420285206967 17.478937082877888 0.5511112605664397
  endloop
endfacet
facet normal -0.0 1.0 -0.0
  outer loop
    vertex 22.674420285206967 17.478937082877888 0.5511112605664397
    vertex 25.28619171755318 17.478937082877888 4.511947296718592e-14
    vertex 18.78619171755318 17.478937082877888 4.5824455341403336e-14
  endloop
endfacet
facet normal -0.0 1.0 -0.0
  outer loop
    vertex 22.674420285206967 17.478937082877888 0.5511112605664397
    vertex 18.78619171755318 17.478937082877888 4.5824455341403336e-14
    vertex 22.28619171755318 17.478937082877888 0.5000000000000421
  endloop
endfacet
facet normal -0.0 1.0 -0.0
  outer loop
    vertex 25.28619171755318 17.478937082877888 4.000000000000044
    vertex 23.585229823229838 17.478937082877888 1.250000000000043
    vertex 23.73508045698679 17.478937082877888 1.6117714323462626
  endloop
endfacet
facet normal -0.0 1.0 -0.0
  outer loop
    vertex 25.28619171755318 17.478937082877888 4.000000000000044
    vertex 23.73508045698679 17.478937082877888 1.6117714323462626
    vertex 23.786191717553184 17.478937082877888 2.0000000000000444
  endloop
endfacet
facet normal -0.0 1.0 -0.0
  outer loop
    vertex 25.28619171755318 17.478937082877888 4.000000000000044
    vertex 23.786191717553184 17.478937082877888 2.0000000000000444
    vertex 23.73508045698679 17.478937082877888 2.3882285676538264
  endloop
endfacet
facet normal -0.0 1.0 -0.0
  outer loop
    vertex 25.28619171755318 17.478937082877888 4.000000000000044
    vertex 23.73508045698679 17.478937082877888 2.3882285676538264
    vertex 23.585229823229838 17.478937082877888 2.750000000000046
  endloop
endfacet
facet normal -0.0 1.0 -0.0
  outer loop
    vertex 25.28619171755318 17.478937082877888 4.000000000000044
    vertex 23.585229823229838 17.478937082877888 2.750000000000046
    vertex 23.346851889333 17.478937082877888 3.0606601717798676
  endloop
endfacet
facet normal -0.0 1.0 -0.0
  outer loop
    vertex 25.28619171755318 17.478937082877888 4.000000000000044
    vertex 23.346851889333 17.478937082877888 3.0606601717798676
    vertex 23.036191717553187 17.478937082877888 3.299038105676705
  endloop
endfacet
facet normal -0.0 1.0 -0.0
  outer loop
    vertex 25.28619171755318 17.478937082877888 4.000000000000044
    vertex 23.036191717553187 17.478937082877888 3.299038105676705
    vertex 22.674420285206967 17.478937082877888 3.4488887394336496
  endloop
endfacet
facet normal -0.0 1.0 -0.0
  outer loop
    vertex 25.28619171755318 17.478937082877888 4.000000000000044
    vertex 22.674420285206967 17.478937082877888 3.4488887394336496
    vertex 22.28619171755318 17.478937082877888 3.500000000000048
  endloop
endfacet
facet normal -0.0 1.0 -0.0
  outer loop
    vertex 25.28619171755318 17.478937082877888 4.000000000000044
    vertex 22.28619171755318 17.478937082877888 3.500000000000048
    vertex 18.78619171755318 17.478937082877888 4.000000000000044
  endloop
endfacet
facet normal 1.0 -0.0 -0.0
  outer loop
    vertex 25.28619171755318 17.478937082877888 4.511947296718592e-14
    vertex 25.28619171755318 11.978937082877893 4.000000000000044
    vertex 25.28619171755318 11.978937082877893 4.511946372076636e-14
  endloop
endfacet
facet normal 1.0 -0.0 -0.0
  outer loop
    vertex 25.28619171755318 11.978937082877893 4.000000000000044
    vertex 25.28619171755318 17.478937082877888 4.511947296718592e-14
    vertex 25.28619171755318 17.478937082877888 4.000000000000044
  endloop
endfacet
facet normal -1.0 0.0 0.0
  outer loop
    vertex 5.2861917175531286 17.478937082877888 4.000000000000044
    vertex 5.2861917175531286 11.978937082877893 4.511946372076636e-14
    vertex 5.2861917175531286 11.978937082877893 4.000000000000044
  endloop
endfacet
facet normal -1.0 0.0 0.0
  outer loop
    vertex 5.2861917175531286 11.978937082877893 4.511946372076636e-14
    vertex 5.2861917175531286 17.478937082877888 4.000000000000044
    vertex 5.2861917175531286 17.478937082877888 4.511947296718592e-14
  endloop
endfacet
facet normal -0.6869544977401465 0.7267004321139373 -1.3032018813590808e-19
  outer loop
    vertex 17.43359591346658 11.841185947839024 4.0000000000000435
    vertex 17.579317077948712 11.978937082877893 4.441447210012938e-14
    vertex 17.43359591346658 11.841185947839024 4.441447210012938e-14
  endloop
endfacet
facet normal -0.6869544977401465 0.7267004321139373 -1.3032018813590808e-19
  outer loop
    vertex 17.579317077948712 11.978937082877893 4.441447210012938e-14
    vertex 17.43359591346658 11.841185947839024 4.0000000000000435
    vertex 17.579317077948712 11.978937082877893 4.000000000000044
  endloop
endfacet
facet normal -0.6869544977401573 0.7267004321139271 1.2397042741059001e-18
  outer loop
    vertex 17.579317077948712 11.978937082877893 4.000000000000044
    vertex 18.78619171755318 13.119803284750256 4.864442182395123e-14
    vertex 17.579317077948712 11.978937082877893 4.441447210012938e-14
  endloop
endfacet
facet normal -0.6869544977401573 0.7267004321139271 1.2397042741059001e-18
  outer loop
    vertex 18.78619171755318 13.119803284750256 4.864442182395123e-14
    vertex 17.579317077948712 11.978937082877893 4.000000000000044
    vertex 18.78619171755318 13.119803284750256 4.000000000000048
  endloop
endfacet
facet normal -1.0 0.0 0.0
  outer loop
    vertex 18.78619171755318 17.478937082877888 4.000000000000044
    vertex 18.78619171755318 13.119803284750256 4.864442182395123e-14
    vertex 18.78619171755318 13.119803284750256 4.000000000000048
  endloop
endfacet
facet normal -1.0 0.0 0.0
  outer loop
    vertex 18.78619171755318 13.119803284750256 4.864442182395123e-14
    vertex 18.78619171755318 17.478937082877888 4.000000000000044
    vertex 18.78619171755318 17.478937082877888 4.5824455341403336e-14
  endloop
endfacet
facet normal 1.0 -0.0 -0.0
  outer loop
    vertex 11.786191717553134 17.478937082877888 4.5824455341403336e-14
    vertex 11.786191717553134 13.119803284750256 4.000000000000044
    vertex 11.786191717553134 13.119803284750256 4.5824455341403336e-14
  endloop
endfacet
facet normal 1.0 -0.0 -0.0
  outer loop
    vertex 11.786191717553134 13.119803284750256 4.000000000000044
    vertex 11.786191717553134 17.478937082877888 4.5824455341403336e-14
    vertex 11.786191717553134 17.478937082877888 4.000000000000044
  endloop
endfacet
facet normal 0.686954497740159 0.7267004321139254 -0.0
  outer loop
    vertex 11.786191717553134 13.119803284750256 4.000000000000044
    vertex 12.993066357157597 11.978937082877893 4.5824455341403336e-14
    vertex 11.786191717553134 13.119803284750256 4.5824455341403336e-14
  endloop
endfacet
facet normal 0.686954497740159 0.7267004321139254 -0.0
  outer loop
    vertex 12.993066357157597 11.978937082877893 4.5824455341403336e-14
    vertex 11.786191717553134 13.119803284750256 4.000000000000044
    vertex 12.993066357157597 11.978937082877893 4.000000000000044
  endloop
endfacet
facet normal 0.6869544977401745 0.7267004321139109 -0.0
  outer loop
    vertex 12.993066357157597 11.978937082877893 4.000000000000044
    vertex 13.138787521639715 11.841185947839024 4.5824455341403336e-14
    vertex 12.993066357157597 11.978937082877893 4.5824455341403336e-14
  endloop
endfacet
facet normal 0.6869544977401745 0.7267004321139109 -0.0
  outer loop
    vertex 13.138787521639715 11.841185947839024 4.5824455341403336e-14
    vertex 12.993066357157597 11.978937082877893 4.000000000000044
    vertex 13.138787521639715 11.841185947839024 4.000000000000044
  endloop
endfacet
facet normal 0.5908685516650821 0.8067678443351647 -0.0
  outer loop
    vertex 13.138787521639715 11.841185947839024 4.000000000000044
    vertex 13.518082273644715 11.56339433486758 4.5824455341403336e-14
    vertex 13.138787521639715 11.841185947839024 4.5824455341403336e-14
  endloop
endfacet
facet normal 0.5908685516650821 0.8067678443351647 -0.0
  outer loop
    vertex 13.518082273644715 11.56339433486758 4.5824455341403336e-14
    vertex 13.138787521639715 11.841185947839024 4.000000000000044
    vertex 13.518082273644715 11.56339433486758 4.000000000000044
  endloop
endfacet
facet normal 0.485539471851716 0.8742147455139138 -0.0
  outer loop
    vertex 13.518082273644715 11.56339433486758 4.000000000000044
    vertex 13.929086588488307 11.335122255287612 4.5824455341403336e-14
    vertex 13.518082273644715 11.56339433486758 4.5824455341403336e-14
  endloop
endfacet
facet normal 0.485539471851716 0.8742147455139138 -0.0
  outer loop
    vertex 13.929086588488307 11.335122255287612 4.5824455341403336e-14
    vertex 13.518082273644715 11.56339433486758 4.000000000000044
    vertex 13.929086588488307 11.335122255287612 4.000000000000044
  endloop
endfacet
facet normal 0.3726149526450771 0.9279860435724813 -1.6289884402359084e-18
  outer loop
    vertex 13.929086588488307 11.335122255287612 4.000000000000044
    vertex 14.365371002564048 11.159940637615017 4.5824455341403336e-14
    vertex 13.929086588488307 11.335122255287612 4.5824455341403336e-14
  endloop
endfacet
facet normal 0.3726149526450771 0.9279860435724813 -1.6289884402359084e-18
  outer loop
    vertex 14.365371002564048 11.159940637615017 4.5824455341403336e-14
    vertex 13.929086588488307 11.335122255287612 4.000000000000044
    vertex 14.365371002564048 11.159940637615017 4.000000000000044
  endloop
endfacet
facet normal 0.25386150612379055 0.9672405779890342 -1.1098251853849634e-18
  outer loop
    vertex 14.365371002564048 11.159940637615017 4.000000000000044
    vertex 14.820110588101015 11.04058990036769 4.5824455341403336e-14
    vertex 14.365371002564048 11.159940637615017 4.5824455341403336e-14
  endloop
endfacet
facet normal 0.25386150612379055 0.9672405779890342 -1.1098251853849634e-18
  outer loop
    vertex 14.820110588101015 11.04058990036769 4.5824455341403336e-14
    vertex 14.365371002564048 11.159940637615017 4.000000000000044
    vertex 14.820110588101015 11.04058990036769 4.000000000000044
  endloop
endfacet
facet normal 0.13113682802227414 0.991364278323693 1.629418314705608e-32
  outer loop
    vertex 14.820110588101015 11.04058990036769 4.000000000000044
    vertex 15.286191717553152 10.978937082877895 4.5824455341403336e-14
    vertex 14.820110588101015 11.04058990036769 4.5824455341403336e-14
  endloop
endfacet
facet normal 0.13113682802227414 0.991364278323693 1.629418314705608e-32
  outer loop
    vertex 15.286191717553152 10.978937082877895 4.5824455341403336e-14
    vertex 14.820110588101015 11.04058990036769 4.000000000000044
    vertex 15.286191717553152 10.978937082877895 4.000000000000044
  endloop
endfacet
facet normal -0.1311368280222741 0.991364278323693 1.6294183147056076e-32
  outer loop
    vertex 15.286191717553152 10.978937082877895 4.000000000000044
    vertex 15.752272847005289 11.04058990036769 4.5824455341403336e-14
    vertex 15.286191717553152 10.978937082877895 4.5824455341403336e-14
  endloop
endfacet
facet normal -0.1311368280222741 0.991364278323693 1.6294183147056076e-32
  outer loop
    vertex 15.752272847005289 11.04058990036769 4.5824455341403336e-14
    vertex 15.286191717553152 10.978937082877895 4.000000000000044
    vertex 15.752272847005289 11.04058990036769 4.000000000000044
  endloop
endfacet
facet normal -0.25386150612379343 0.9672405779890334 6.883385297503511e-19
  outer loop
    vertex 15.752272847005289 11.04058990036769 4.5824455341403336e-14
    vertex 16.20701243254225 11.159940637615017 4.000000000000044
    vertex 16.20701243254225 11.159940637615017 4.441447210012938e-14
  endloop
endfacet
facet normal -0.25386150612379343 0.9672405779890334 6.883385297503511e-19
  outer loop
    vertex 16.20701243254225 11.159940637615017 4.000000000000044
    vertex 15.752272847005289 11.04058990036769 4.5824455341403336e-14
    vertex 15.752272847005289 11.04058990036769 4.000000000000044
  endloop
endfacet
facet normal -0.372614952645073 0.9279860435724828 -0.0
  outer loop
    vertex 16.20701243254225 11.159940637615017 4.000000000000044
    vertex 16.643296846617996 11.335122255287612 4.441447210012938e-14
    vertex 16.20701243254225 11.159940637615017 4.441447210012938e-14
  endloop
endfacet
facet normal -0.372614952645073 0.9279860435724828 -0.0
  outer loop
    vertex 16.643296846617996 11.335122255287612 4.441447210012938e-14
    vertex 16.20701243254225 11.159940637615017 4.000000000000044
    vertex 16.643296846617996 11.335122255287612 4.000000000000044
  endloop
endfacet
facet normal -0.4855394718517161 0.8742147455139138 1.4874663357040467e-18
  outer loop
    vertex 16.643296846617996 11.335122255287612 4.000000000000044
    vertex 17.054301161461588 11.56339433486758 4.441447210012938e-14
    vertex 16.643296846617996 11.335122255287612 4.441447210012938e-14
  endloop
endfacet
facet normal -0.4855394718517161 0.8742147455139138 1.4874663357040467e-18
  outer loop
    vertex 17.054301161461588 11.56339433486758 4.441447210012938e-14
    vertex 16.643296846617996 11.335122255287612 4.000000000000044
    vertex 17.054301161461588 11.56339433486758 4.0000000000000435
  endloop
endfacet
facet normal -0.5908685516650907 0.8067678443351585 2.5831438956721864e-18
  outer loop
    vertex 17.054301161461588 11.56339433486758 4.0000000000000435
    vertex 17.43359591346658 11.841185947839024 4.441447210012938e-14
    vertex 17.054301161461588 11.56339433486758 4.441447210012938e-14
  endloop
endfacet
facet normal -0.5908685516650907 0.8067678443351585 2.5831438956721864e-18
  outer loop
    vertex 17.43359591346658 11.841185947839024 4.441447210012938e-14
    vertex 17.054301161461588 11.56339433486758 4.0000000000000435
    vertex 17.43359591346658 11.841185947839024 4.0000000000000435
  endloop
endfacet
facet normal -0.0 1.0 -0.0
  outer loop
    vertex 5.2861917175531286 17.478937082877888 4.511947296718592e-14
    vertex 7.897963149899344 17.478937082877888 0.5511112605664399
    vertex 11.786191717553134 17.478937082877888 4.5824455341403336e-14
  endloop
endfacet
facet normal -0.0 1.0 -0.0
  outer loop
    vertex 7.897963149899344 17.478937082877888 0.5511112605664399
    vertex 5.2861917175531286 17.478937082877888 4.511947296718592e-14
    vertex 7.536191717553124 17.478937082877888 0.7009618943233846
  endloop
endfacet
facet normal -0.0 1.0 -0.0
  outer loop
    vertex 7.536191717553124 17.478937082877888 0.7009618943233846
    vertex 5.2861917175531286 17.478937082877888 4.511947296718592e-14
    vertex 7.225531545773304 17.478937082877888 0.9393398282202216
  endloop
endfacet
facet normal -0.0 1.0 -0.0
  outer loop
    vertex 7.225531545773304 17.478937082877888 0.9393398282202216
    vertex 5.2861917175531286 17.478937082877888 4.511947296718592e-14
    vertex 6.987153611876467 17.478937082877888 1.2500000000000435
  endloop
endfacet
facet normal -0.0 1.0 -0.0
  outer loop
    vertex 6.987153611876467 17.478937082877888 1.2500000000000435
    vertex 5.2861917175531286 17.478937082877888 4.511947296718592e-14
    vertex 5.2861917175531286 17.478937082877888 4.000000000000044
  endloop
endfacet
facet normal -0.0 1.0 -0.0
  outer loop
    vertex 11.786191717553134 17.478937082877888 4.5824455341403336e-14
    vertex 7.897963149899344 17.478937082877888 0.5511112605664399
    vertex 8.286191717553129 17.478937082877888 0.5000000000000421
  endloop
endfacet
facet normal -0.0 1.0 -0.0
  outer loop
    vertex 6.987153611876467 17.478937082877888 1.2500000000000435
    vertex 5.2861917175531286 17.478937082877888 4.000000000000044
    vertex 6.837302978119526 17.478937082877888 1.6117714323462629
  endloop
endfacet
facet normal -0.0 1.0 -0.0
  outer loop
    vertex 6.837302978119526 17.478937082877888 1.6117714323462629
    vertex 5.2861917175531286 17.478937082877888 4.000000000000044
    vertex 6.786191717553125 17.478937082877888 2.000000000000045
  endloop
endfacet
facet normal -0.0 1.0 -0.0
  outer loop
    vertex 6.786191717553125 17.478937082877888 2.000000000000045
    vertex 5.2861917175531286 17.478937082877888 4.000000000000044
    vertex 6.837302978119526 17.478937082877888 2.388228567653828
  endloop
endfacet
facet normal -0.0 1.0 -0.0
  outer loop
    vertex 6.837302978119526 17.478937082877888 2.388228567653828
    vertex 5.2861917175531286 17.478937082877888 4.000000000000044
    vertex 6.987153611876467 17.478937082877888 2.750000000000047
  endloop
endfacet
facet normal -0.0 1.0 -0.0
  outer loop
    vertex 6.987153611876467 17.478937082877888 2.750000000000047
    vertex 5.2861917175531286 17.478937082877888 4.000000000000044
    vertex 7.225531545773304 17.478937082877888 3.0606601717798685
  endloop
endfacet
facet normal -0.0 1.0 -0.0
  outer loop
    vertex 7.225531545773304 17.478937082877888 3.0606601717798685
    vertex 5.2861917175531286 17.478937082877888 4.000000000000044
    vertex 7.536191717553129 17.478937082877888 3.299038105676706
  endloop
endfacet
facet normal -0.0 1.0 -0.0
  outer loop
    vertex 7.536191717553129 17.478937082877888 3.299038105676706
    vertex 5.2861917175531286 17.478937082877888 4.000000000000044
    vertex 7.89796314989935 17.478937082877888 3.44888873943365
  endloop
endfacet
facet normal -0.0 1.0 -0.0
  outer loop
    vertex 7.89796314989935 17.478937082877888 3.44888873943365
    vertex 5.2861917175531286 17.478937082877888 4.000000000000044
    vertex 8.286191717553129 17.478937082877888 3.500000000000048
  endloop
endfacet
facet normal -0.0 1.0 -0.0
  outer loop
    vertex 11.786191717553134 17.478937082877888 4.5824455341403336e-14
    vertex 9.34685188933295 17.478937082877888 0.9393398282202216
    vertex 11.786191717553134 17.478937082877888 4.000000000000044
  endloop
endfacet
facet normal -0.0 1.0 -0.0
  outer loop
    vertex 9.34685188933295 17.478937082877888 0.9393398282202216
    vertex 11.786191717553134 17.478937082877888 4.5824455341403336e-14
    vertex 9.036191717553127 17.478937082877888 0.7009618943233845
  endloop
endfacet
facet normal -0.0 1.0 -0.0
  outer loop
    vertex 9.036191717553127 17.478937082877888 0.7009618943233845
    vertex 11.786191717553134 17.478937082877888 4.5824455341403336e-14
    vertex 8.674420285206912 17.478937082877888 0.5511112605664397
  endloop
endfacet
facet normal -0.0 1.0 -0.0
  outer loop
    vertex 8.674420285206912 17.478937082877888 0.5511112605664397
    vertex 11.786191717553134 17.478937082877888 4.5824455341403336e-14
    vertex 8.286191717553129 17.478937082877888 0.5000000000000421
  endloop
endfacet
facet normal -0.0 1.0 -0.0
  outer loop
    vertex 11.786191717553134 17.478937082877888 4.000000000000044
    vertex 9.34685188933295 17.478937082877888 0.9393398282202216
    vertex 9.585229823229787 17.478937082877888 1.250000000000043
  endloop
endfacet
facet normal -0.0 1.0 -0.0
  outer loop
    vertex 11.786191717553134 17.478937082877888 4.000000000000044
    vertex 9.585229823229787 17.478937082877888 1.250000000000043
    vertex 9.735080456986728 17.478937082877888 1.6117714323462626
  endloop
endfacet
facet normal -0.0 1.0 -0.0
  outer loop
    vertex 11.786191717553134 17.478937082877888 4.000000000000044
    vertex 9.735080456986728 17.478937082877888 1.6117714323462626
    vertex 9.786191717553134 17.478937082877888 2.0000000000000444
  endloop
endfacet
facet normal -0.0 1.0 -0.0
  outer loop
    vertex 11.786191717553134 17.478937082877888 4.000000000000044
    vertex 9.786191717553134 17.478937082877888 2.0000000000000444
    vertex 9.73508045698674 17.478937082877888 2.3882285676538264
  endloop
endfacet
facet normal -0.0 1.0 -0.0
  outer loop
    vertex 11.786191717553134 17.478937082877888 4.000000000000044
    vertex 9.73508045698674 17.478937082877888 2.3882285676538264
    vertex 9.585229823229787 17.478937082877888 2.750000000000046
  endloop
endfacet
facet normal -0.0 1.0 -0.0
  outer loop
    vertex 11.786191717553134 17.478937082877888 4.000000000000044
    vertex 9.585229823229787 17.478937082877888 2.750000000000046
    vertex 9.34685188933295 17.478937082877888 3.0606601717798676
  endloop
endfacet
facet normal -0.0 1.0 -0.0
  outer loop
    vertex 11.786191717553134 17.478937082877888 4.000000000000044
    vertex 9.34685188933295 17.478937082877888 3.0606601717798676
    vertex 9.036191717553132 17.478937082877888 3.299038105676705
  endloop
endfacet
facet normal -0.0 1.0 -0.0
  outer loop
    vertex 11.786191717553134 17.478937082877888 4.000000000000044
    vertex 9.036191717553132 17.478937082877888 3.299038105676705
    vertex 8.674420285206912 17.478937082877888 3.4488887394336496
  endloop
endfacet
facet normal -0.0 1.0 -0.0
  outer loop
    vertex 11.786191717553134 17.478937082877888 4.000000000000044
    vertex 8.674420285206912 17.478937082877888 3.4488887394336496
    vertex 8.286191717553129 17.478937082877888 3.500000000000048
  endloop
endfacet
facet normal -0.0 1.0 -0.0
  outer loop
    vertex 11.786191717553134 17.478937082877888 4.000000000000044
    vertex 8.286191717553129 17.478937082877888 3.500000000000048
    vertex 5.2861917175531286 17.478937082877888 4.000000000000044
  endloop
endfacet
facet normal -0.08217530195498537 -0.9966178905421109 -3.247773645355711e-19
  outer loop
    vertex 15.286191717553152 9.478937082877898 4.000000000000044
    vertex 14.374164692281935 9.554137515163939 4.6529446962040307e-14
    vertex 15.286191717553152 9.478937082877898 4.511946372076636e-14
  endloop
endfacet
facet normal -0.08217530195498537 -0.9966178905421109 -3.247773645355711e-19
  outer loop
    vertex 14.374164692281935 9.554137515163939 4.6529446962040307e-14
    vertex 15.286191717553152 9.478937082877898 4.000000000000044
    vertex 14.374164692281935 9.554137515163939 4.000000000000044
  endloop
endfacet
facet normal -1.8695648078733084e-18 -2.9161086529789036e-17 1.0
  outer loop
    vertex 11.880457820380533 10.641956488210758 4.000000000000044
    vertex 11.786191717553134 13.119803284750256 4.000000000000044
    vertex 11.204923615588774 11.259291031224041 4.000000000000044
  endloop
endfacet
facet normal -1.8695648078733084e-18 -2.9161086529789036e-17 1.0
  outer loop
    vertex 11.786191717553134 13.119803284750256 4.000000000000044
    vertex 11.880457820380533 10.641956488210758 4.000000000000044
    vertex 12.993066357157597 11.978937082877893 4.000000000000044
  endloop
endfacet
facet normal -1.8695648078733084e-18 -2.9161086529789036e-17 1.0
  outer loop
    vertex 12.993066357157597 11.978937082877893 4.000000000000044
    vertex 11.880457820380533 10.641956488210758 4.000000000000044
    vertex 12.6479847155816 10.143608351880273 4.000000000000044
  endloop
endfacet
facet normal -1.8695648078733084e-18 -2.9161086529789036e-17 1.0
  outer loop
    vertex 12.993066357157597 11.978937082877893 4.000000000000044
    vertex 12.6479847155816 10.143608351880273 4.000000000000044
    vertex 13.486772539350676 9.77770756404593 4.000000000000044
  endloop
endfacet
facet normal -1.8695648078733084e-18 -2.9161086529789036e-17 1.0
  outer loop
    vertex 12.993066357157597 11.978937082877893 4.000000000000044
    vertex 13.486772539350676 9.77770756404593 4.000000000000044
    vertex 13.138787521639715 11.841185947839024 4.000000000000044
  endloop
endfacet
facet normal -1.8695648078733084e-18 -2.9161086529789036e-17 1.0
  outer loop
    vertex 13.138787521639715 11.841185947839024 4.000000000000044
    vertex 13.486772539350676 9.77770756404593 4.000000000000044
    vertex 13.518082273644715 11.56339433486758 4.000000000000044
  endloop
endfacet
facet normal -1.8695648078733084e-18 -2.9161086529789036e-17 1.0
  outer loop
    vertex 13.518082273644715 11.56339433486758 4.000000000000044
    vertex 13.486772539350676 9.77770756404593 4.000000000000044
    vertex 14.374164692281935 9.554137515163939 4.000000000000044
  endloop
endfacet
facet normal -1.8695648078733084e-18 -2.9161086529789036e-17 1.0
  outer loop
    vertex 13.518082273644715 11.56339433486758 4.000000000000044
    vertex 14.374164692281935 9.554137515163939 4.000000000000044
    vertex 13.929086588488307 11.335122255287612 4.000000000000044
  endloop
endfacet
facet normal -1.8695648078733084e-18 -2.9161086529789036e-17 1.0
  outer loop
    vertex 13.929086588488307 11.335122255287612 4.000000000000044
    vertex 14.374164692281935 9.554137515163939 4.000000000000044
    vertex 14.365371002564048 11.159940637615017 4.000000000000044
  endloop
endfacet
facet normal -1.8695648078733084e-18 -2.9161086529789036e-17 1.0
  outer loop
    vertex 14.365371002564048 11.159940637615017 4.000000000000044
    vertex 14.374164692281935 9.554137515163939 4.000000000000044
    vertex 14.820110588101015 11.04058990036769 4.000000000000044
  endloop
endfacet
facet normal -1.8695648078733084e-18 -2.9161086529789036e-17 1.0
  outer loop
    vertex 14.820110588101015 11.04058990036769 4.000000000000044
    vertex 14.374164692281935 9.554137515163939 4.000000000000044
    vertex 15.286191717553152 9.478937082877898 4.000000000000044
  endloop
endfacet
facet normal -1.8695648078733084e-18 -2.9161086529789036e-17 1.0
  outer loop
    vertex 14.820110588101015 11.04058990036769 4.000000000000044
    vertex 15.286191717553152 9.478937082877898 4.000000000000044
    vertex 15.286191717553152 10.978937082877895 4.000000000000044
  endloop
endfacet
facet normal -1.8695648078733084e-18 -2.9161086529789036e-17 1.0
  outer loop
    vertex 15.286191717553152 10.978937082877895 4.000000000000044
    vertex 15.286191717553152 9.478937082877898 4.000000000000044
    vertex 16.198218742824363 9.554137515163939 4.000000000000044
  endloop
endfacet
facet normal -1.8695648078733084e-18 -2.9161086529789036e-17 1.0
  outer loop
    vertex 15.286191717553152 10.978937082877895 4.000000000000044
    vertex 16.198218742824363 9.554137515163939 4.000000000000044
    vertex 15.752272847005289 11.04058990036769 4.000000000000044
  endloop
endfacet
facet normal -1.8695648078733084e-18 -2.9161086529789036e-17 1.0
  outer loop
    vertex 15.752272847005289 11.04058990036769 4.000000000000044
    vertex 16.198218742824363 9.554137515163939 4.000000000000044
    vertex 16.20701243254225 11.159940637615017 4.000000000000044
  endloop
endfacet
facet normal -1.8695648078733084e-18 -2.9161086529789036e-17 1.0
  outer loop
    vertex 16.20701243254225 11.159940637615017 4.000000000000044
    vertex 16.198218742824363 9.554137515163939 4.000000000000044
    vertex 17.085610895755618 9.77770756404593 4.000000000000044
  endloop
endfacet
facet normal -1.8695648078733084e-18 -2.9161086529789036e-17 1.0
  outer loop
    vertex 16.20701243254225 11.159940637615017 4.000000000000044
    vertex 17.085610895755618 9.77770756404593 4.000000000000044
    vertex 16.643296846617996 11.335122255287612 4.000000000000044
  endloop
endfacet
facet normal -1.8695648078733084e-18 -2.9161086529789036e-17 1.0
  outer loop
    vertex 16.643296846617996 11.335122255287612 4.000000000000044
    vertex 17.085610895755618 9.77770756404593 4.000000000000044
    vertex 17.054301161461588 11.56339433486758 4.0000000000000435
  endloop
endfacet
facet normal -1.8695648078733084e-18 -2.9161086529789036e-17 1.0
  outer loop
    vertex 17.054301161461588 11.56339433486758 4.0000000000000435
    vertex 17.085610895755618 9.77770756404593 4.000000000000044
    vertex 17.43359591346658 11.841185947839024 4.0000000000000435
  endloop
endfacet
facet normal -1.8695648078733084e-18 -2.9161086529789036e-17 1.0
  outer loop
    vertex 17.43359591346658 11.841185947839024 4.0000000000000435
    vertex 17.085610895755618 9.77770756404593 4.000000000000044
    vertex 17.92439871952471 10.143608351880273 4.000000000000044
  endloop
endfacet
facet normal -1.8695648078733084e-18 -2.9161086529789036e-17 1.0
  outer loop
    vertex 17.43359591346658 11.841185947839024 4.0000000000000435
    vertex 17.92439871952471 10.143608351880273 4.000000000000044
    vertex 17.579317077948712 11.978937082877893 4.000000000000044
  endloop
endfacet
facet normal -1.8695648078733084e-18 -2.9161086529789036e-17 1.0
  outer loop
    vertex 17.579317077948712 11.978937082877893 4.000000000000044
    vertex 17.92439871952471 10.143608351880273 4.000000000000044
    vertex 18.78619171755318 13.119803284750256 4.000000000000048
  endloop
endfacet
facet normal -1.8695648078733084e-18 -2.9161086529789036e-17 1.0
  outer loop
    vertex 18.78619171755318 13.119803284750256 4.000000000000048
    vertex 17.92439871952471 10.143608351880273 4.000000000000044
    vertex 18.69192561472578 10.641956488210758 4.000000000000044
  endloop
endfacet
facet normal -1.8695648078733084e-18 -2.9161086529789036e-17 1.0
  outer loop
    vertex 18.78619171755318 13.119803284750256 4.000000000000048
    vertex 18.69192561472578 10.641956488210758 4.000000000000044
    vertex 19.367459819517535 11.259291031224041 4.000000000000044
  endloop
endfacet
facet normal -1.8695648078733084e-18 -2.9161086529789036e-17 1.0
  outer loop
    vertex 18.78619171755318 13.119803284750256 4.000000000000048
    vertex 19.367459819517535 11.259291031224041 4.000000000000044
    vertex 18.78619171755318 17.478937082877888 4.000000000000044
  endloop
endfacet
facet normal -1.8695648078733084e-18 -2.9161086529789036e-17 1.0
  outer loop
    vertex 18.78619171755318 17.478937082877888 4.000000000000044
    vertex 19.367459819517535 11.259291031224041 4.000000000000044
    vertex 19.932754397750944 11.978937082877893 4.000000000000044
  endloop
endfacet
facet normal -1.8695648078733084e-18 -2.9161086529789036e-17 1.0
  outer loop
    vertex 18.78619171755318 17.478937082877888 4.000000000000044
    vertex 19.932754397750944 11.978937082877893 4.000000000000044
    vertex 25.28619171755318 17.478937082877888 4.000000000000044
  endloop
endfacet
facet normal -1.8695648078733084e-18 -2.9161086529789036e-17 1.0
  outer loop
    vertex 25.28619171755318 17.478937082877888 4.000000000000044
    vertex 19.932754397750944 11.978937082877893 4.000000000000044
    vertex 25.28619171755318 11.978937082877893 4.000000000000044
  endloop
endfacet
facet normal -1.8695648078733084e-18 -2.9161086529789036e-17 1.0
  outer loop
    vertex 10.639629037355364 11.978937082877893 4.000000000000044
    vertex 5.2861917175531286 17.478937082877888 4.000000000000044
    vertex 5.2861917175531286 11.978937082877893 4.000000000000044
  endloop
endfacet
facet normal -1.8695648078733084e-18 -2.9161086529789036e-17 1.0
  outer loop
    vertex 5.2861917175531286 17.478937082877888 4.000000000000044
    vertex 10.639629037355364 11.978937082877893 4.000000000000044
    vertex 11.786191717553134 17.478937082877888 4.000000000000044
  endloop
endfacet
facet normal -1.8695648078733084e-18 -2.9161086529789036e-17 1.0
  outer loop
    vertex 11.786191717553134 17.478937082877888 4.000000000000044
    vertex 10.639629037355364 11.978937082877893 4.000000000000044
    vertex 11.204923615588774 11.259291031224041 4.000000000000044
  endloop
endfacet
facet normal -1.8695648078733084e-18 -2.9161086529789036e-17 1.0
  outer loop
    vertex 11.786191717553134 17.478937082877888 4.000000000000044
    vertex 11.204923615588774 11.259291031224041 4.000000000000044
    vertex 11.786191717553134 13.119803284750256 4.000000000000044
  endloop
endfacet
facet normal 0.0 -1.0 0.0
  outer loop
    vertex 25.28619171755318 11.978937082877893 4.511946372076636e-14
    vertex 22.674420285206967 11.978937082877872 0.5511112605664397
    vertex 19.932754397750944 11.978937082877893 4.7939430203314254e-14
  endloop
endfacet
facet normal 0.0 -1.0 0.0
  outer loop
    vertex 22.674420285206967 11.978937082877872 0.5511112605664397
    vertex 25.28619171755318 11.978937082877893 4.511946372076636e-14
    vertex 23.036191717553187 11.978937082877872 0.7009618943233845
  endloop
endfacet
facet normal 0.0 -1.0 0.0
  outer loop
    vertex 23.036191717553187 11.978937082877872 0.7009618943233845
    vertex 25.28619171755318 11.978937082877893 4.511946372076636e-14
    vertex 23.346851889333 11.978937082877872 0.9393398282202216
  endloop
endfacet
facet normal 0.0 -1.0 0.0
  outer loop
    vertex 23.346851889333 11.978937082877872 0.9393398282202216
    vertex 25.28619171755318 11.978937082877893 4.511946372076636e-14
    vertex 23.585229823229838 11.978937082877872 1.250000000000043
  endloop
endfacet
facet normal 0.0 -1.0 0.0
  outer loop
    vertex 23.585229823229838 11.978937082877872 1.250000000000043
    vertex 25.28619171755318 11.978937082877893 4.511946372076636e-14
    vertex 25.28619171755318 11.978937082877893 4.000000000000044
  endloop
endfacet
facet normal 0.0 -1.0 0.0
  outer loop
    vertex 19.932754397750944 11.978937082877893 4.7939430203314254e-14
    vertex 22.674420285206967 11.978937082877872 0.5511112605664397
    vertex 22.28619171755318 11.978937082877872 0.5000000000000421
  endloop
endfacet
facet normal 0.0 -1.0 0.0
  outer loop
    vertex 23.585229823229838 11.978937082877872 1.250000000000043
    vertex 25.28619171755318 11.978937082877893 4.000000000000044
    vertex 23.73508045698679 11.978937082877872 1.6117714323462626
  endloop
endfacet
facet normal 0.0 -1.0 0.0
  outer loop
    vertex 23.73508045698679 11.978937082877872 1.6117714323462626
    vertex 25.28619171755318 11.978937082877893 4.000000000000044
    vertex 23.786191717553184 11.978937082877872 2.0000000000000444
  endloop
endfacet
facet normal 0.0 -1.0 0.0
  outer loop
    vertex 23.786191717553184 11.978937082877872 2.0000000000000444
    vertex 25.28619171755318 11.978937082877893 4.000000000000044
    vertex 23.73508045698679 11.978937082877872 2.3882285676538264
  endloop
endfacet
facet normal 0.0 -1.0 0.0
  outer loop
    vertex 23.73508045698679 11.978937082877872 2.3882285676538264
    vertex 25.28619171755318 11.978937082877893 4.000000000000044
    vertex 23.585229823229838 11.978937082877872 2.750000000000046
  endloop
endfacet
facet normal 0.0 -1.0 0.0
  outer loop
    vertex 23.585229823229838 11.978937082877872 2.750000000000046
    vertex 25.28619171755318 11.978937082877893 4.000000000000044
    vertex 23.346851889333 11.978937082877872 3.0606601717798676
  endloop
endfacet
facet normal 0.0 -1.0 0.0
  outer loop
    vertex 23.346851889333 11.978937082877872 3.0606601717798676
    vertex 25.28619171755318 11.978937082877893 4.000000000000044
    vertex 23.036191717553187 11.978937082877872 3.299038105676705
  endloop
endfacet
facet normal 0.0 -1.0 0.0
  outer loop
    vertex 23.036191717553187 11.978937082877872 3.299038105676705
    vertex 25.28619171755318 11.978937082877893 4.000000000000044
    vertex 22.674420285206967 11.978937082877872 3.4488887394336496
  endloop
endfacet
facet normal 0.0 -1.0 0.0
  outer loop
    vertex 22.674420285206967 11.978937082877872 3.4488887394336496
    vertex 25.28619171755318 11.978937082877893 4.000000000000044
    vertex 22.28619171755318 11.978937082877872 3.500000000000048
  endloop
endfacet
facet normal 0.0 -1.0 0.0
  outer loop
    vertex 19.932754397750944 11.978937082877893 4.7939430203314254e-14
    vertex 20.83730297811957 11.978937082877872 1.6117714323462629
    vertex 19.932754397750944 11.978937082877893 4.000000000000044
  endloop
endfacet
facet normal 0.0 -1.0 0.0
  outer loop
    vertex 20.83730297811957 11.978937082877872 1.6117714323462629
    vertex 19.932754397750944 11.978937082877893 4.7939430203314254e-14
    vertex 20.98715361187651 11.978937082877872 1.2500000000000435
  endloop
endfacet
facet normal 0.0 -1.0 0.0
  outer loop
    vertex 20.98715361187651 11.978937082877872 1.2500000000000435
    vertex 19.932754397750944 11.978937082877893 4.7939430203314254e-14
    vertex 21.22553154577335 11.978937082877872 0.9393398282202216
  endloop
endfacet
facet normal 0.0 -1.0 0.0
  outer loop
    vertex 21.22553154577335 11.978937082877872 0.9393398282202216
    vertex 19.932754397750944 11.978937082877893 4.7939430203314254e-14
    vertex 21.536191717553173 11.978937082877872 0.7009618943233846
  endloop
endfacet
facet normal 0.0 -1.0 0.0
  outer loop
    vertex 21.536191717553173 11.978937082877872 0.7009618943233846
    vertex 19.932754397750944 11.978937082877893 4.7939430203314254e-14
    vertex 21.897963149899397 11.978937082877872 0.5511112605664399
  endloop
endfacet
facet normal 0.0 -1.0 0.0
  outer loop
    vertex 21.897963149899397 11.978937082877872 0.5511112605664399
    vertex 19.932754397750944 11.978937082877893 4.7939430203314254e-14
    vertex 22.28619171755318 11.978937082877872 0.5000000000000421
  endloop
endfacet
facet normal 0.0 -1.0 0.0
  outer loop
    vertex 19.932754397750944 11.978937082877893 4.000000000000044
    vertex 20.83730297811957 11.978937082877872 1.6117714323462629
    vertex 20.786191717553177 11.978937082877872 2.000000000000045
  endloop
endfacet
facet normal 0.0 -1.0 0.0
  outer loop
    vertex 19.932754397750944 11.978937082877893 4.000000000000044
    vertex 20.786191717553177 11.978937082877872 2.000000000000045
    vertex 20.83730297811957 11.978937082877872 2.388228567653828
  endloop
endfacet
facet normal 0.0 -1.0 0.0
  outer loop
    vertex 19.932754397750944 11.978937082877893 4.000000000000044
    vertex 20.83730297811957 11.978937082877872 2.388228567653828
    vertex 20.98715361187651 11.978937082877872 2.750000000000047
  endloop
endfacet
facet normal 0.0 -1.0 0.0
  outer loop
    vertex 19.932754397750944 11.978937082877893 4.000000000000044
    vertex 20.98715361187651 11.978937082877872 2.750000000000047
    vertex 21.22553154577335 11.978937082877872 3.0606601717798685
  endloop
endfacet
facet normal 0.0 -1.0 0.0
  outer loop
    vertex 19.932754397750944 11.978937082877893 4.000000000000044
    vertex 21.22553154577335 11.978937082877872 3.0606601717798685
    vertex 21.536191717553173 11.978937082877872 3.299038105676706
  endloop
endfacet
facet normal 0.0 -1.0 0.0
  outer loop
    vertex 19.932754397750944 11.978937082877893 4.000000000000044
    vertex 21.536191717553173 11.978937082877872 3.299038105676706
    vertex 21.897963149899397 11.978937082877872 3.44888873943365
  endloop
endfacet
facet normal 0.0 -1.0 0.0
  outer loop
    vertex 19.932754397750944 11.978937082877893 4.000000000000044
    vertex 21.897963149899397 11.978937082877872 3.44888873943365
    vertex 22.28619171755318 11.978937082877872 3.500000000000048
  endloop
endfacet
facet normal 0.0 -1.0 0.0
  outer loop
    vertex 19.932754397750944 11.978937082877893 4.000000000000044
    vertex 22.28619171755318 11.978937082877872 3.500000000000048
    vertex 25.28619171755318 11.978937082877893 4.000000000000044
  endloop
endfacet
facet normal 0.7863935059632046 -0.6177258726805117 -0.0
  outer loop
    vertex 19.932754397750944 11.978937082877893 4.7939430203314254e-14
    vertex 19.367459819517535 11.259291031224041 4.000000000000044
    vertex 19.367459819517535 11.259291031224041 4.7939430203314254e-14
  endloop
endfacet
facet normal 0.7863935059632046 -0.6177258726805117 -0.0
  outer loop
    vertex 19.367459819517535 11.259291031224041 4.000000000000044
    vertex 19.932754397750944 11.978937082877893 4.7939430203314254e-14
    vertex 19.932754397750944 11.978937082877893 4.000000000000044
  endloop
endfacet
facet normal 0.6745925646597188 -0.7381902679565906 0.0
  outer loop
    vertex 19.367459819517535 11.259291031224041 4.000000000000044
    vertex 18.69192561472578 10.641956488210758 4.7939430203314254e-14
    vertex 19.367459819517535 11.259291031224041 4.7939430203314254e-14
  endloop
endfacet
facet normal 0.6745925646597188 -0.7381902679565906 0.0
  outer loop
    vertex 18.69192561472578 10.641956488210758 4.7939430203314254e-14
    vertex 19.367459819517535 11.259291031224041 4.000000000000044
    vertex 18.69192561472578 10.641956488210758 4.000000000000044
  endloop
endfacet
facet normal 0.5445701219627626 -0.8387153165797451 0.0
  outer loop
    vertex 18.69192561472578 10.641956488210758 4.000000000000044
    vertex 17.92439871952471 10.143608351880273 4.7939430203314254e-14
    vertex 18.69192561472578 10.641956488210758 4.7939430203314254e-14
  endloop
endfacet
facet normal 0.5445701219627626 -0.8387153165797451 0.0
  outer loop
    vertex 17.92439871952471 10.143608351880273 4.7939430203314254e-14
    vertex 18.69192561472578 10.641956488210758 4.000000000000044
    vertex 17.92439871952471 10.143608351880273 4.000000000000044
  endloop
endfacet
facet normal 0.39983822980543304 -0.9165857242975466 0.0
  outer loop
    vertex 17.92439871952471 10.143608351880273 4.000000000000044
    vertex 17.085610895755618 9.77770756404593 4.7939430203314254e-14
    vertex 17.92439871952471 10.143608351880273 4.7939430203314254e-14
  endloop
endfacet
facet normal 0.39983822980543304 -0.9165857242975466 0.0
  outer loop
    vertex 17.085610895755618 9.77770756404593 4.7939430203314254e-14
    vertex 17.92439871952471 10.143608351880273 4.000000000000044
    vertex 17.085610895755618 9.77770756404593 4.000000000000044
  endloop
endfacet
facet normal 0.2443062588401993 -0.9696981241043553 0.0
  outer loop
    vertex 17.085610895755618 9.77770756404593 4.000000000000044
    vertex 16.198218742824363 9.554137515163939 4.7939430203314254e-14
    vertex 17.085610895755618 9.77770756404593 4.7939430203314254e-14
  endloop
endfacet
facet normal 0.2443062588401993 -0.9696981241043553 0.0
  outer loop
    vertex 16.198218742824363 9.554137515163939 4.7939430203314254e-14
    vertex 17.085610895755618 9.77770756404593 4.000000000000044
    vertex 16.198218742824363 9.554137515163939 4.000000000000044
  endloop
endfacet
facet normal 0.08217530195498587 -0.9966178905421109 -1.0493118018352766e-19
  outer loop
    vertex 16.198218742824363 9.554137515163939 4.7939430203314254e-14
    vertex 15.286191717553152 9.478937082877898 4.000000000000044
    vertex 15.286191717553152 9.478937082877898 4.511946372076636e-14
  endloop
endfacet
facet normal 0.08217530195498587 -0.9966178905421109 -1.0493118018352766e-19
  outer loop
    vertex 15.286191717553152 9.478937082877898 4.000000000000044
    vertex 16.198218742824363 9.554137515163939 4.7939430203314254e-14
    vertex 16.198218742824363 9.554137515163939 4.000000000000044
  endloop
endfacet
facet normal -0.2443062588401979 -0.9696981241043557 0.0
  outer loop
    vertex 14.374164692281935 9.554137515163939 4.000000000000044
    vertex 13.486772539350676 9.77770756404593 4.6529446962040307e-14
    vertex 14.374164692281935 9.554137515163939 4.6529446962040307e-14
  endloop
endfacet
facet normal -0.2443062588401979 -0.9696981241043557 0.0
  outer loop
    vertex 13.486772539350676 9.77770756404593 4.6529446962040307e-14
    vertex 14.374164692281935 9.554137515163939 4.000000000000044
    vertex 13.486772539350676 9.77770756404593 4.000000000000044
  endloop
endfacet
facet normal -0.3998382298054398 -0.9165857242975436 0.0
  outer loop
    vertex 13.486772539350676 9.77770756404593 4.000000000000044
    vertex 12.6479847155816 10.143608351880273 4.6529446962040307e-14
    vertex 13.486772539350676 9.77770756404593 4.6529446962040307e-14
  endloop
endfacet
facet normal -0.3998382298054398 -0.9165857242975436 0.0
  outer loop
    vertex 12.6479847155816 10.143608351880273 4.6529446962040307e-14
    vertex 13.486772539350676 9.77770756404593 4.000000000000044
    vertex 12.6479847155816 10.143608351880273 4.000000000000044
  endloop
endfacet
facet normal -0.544570121962764 -0.8387153165797441 0.0
  outer loop
    vertex 12.6479847155816 10.143608351880273 4.000000000000044
    vertex 11.880457820380533 10.641956488210758 4.6529446962040307e-14
    vertex 12.6479847155816 10.143608351880273 4.6529446962040307e-14
  endloop
endfacet
facet normal -0.544570121962764 -0.8387153165797441 0.0
  outer loop
    vertex 11.880457820380533 10.641956488210758 4.6529446962040307e-14
    vertex 12.6479847155816 10.143608351880273 4.000000000000044
    vertex 11.880457820380533 10.641956488210758 4.000000000000044
  endloop
endfacet
facet normal -0.6745925646597173 -0.738190267956592 0.0
  outer loop
    vertex 11.880457820380533 10.641956488210758 4.000000000000044
    vertex 11.204923615588774 11.259291031224041 4.6529446962040307e-14
    vertex 11.880457820380533 10.641956488210758 4.6529446962040307e-14
  endloop
endfacet
facet normal -0.6745925646597173 -0.738190267956592 0.0
  outer loop
    vertex 11.204923615588774 11.259291031224041 4.6529446962040307e-14
    vertex 11.880457820380533 10.641956488210758 4.000000000000044
    vertex 11.204923615588774 11.259291031224041 4.000000000000044
  endloop
endfacet
facet normal -0.7863935059632042 -0.6177258726805117 0.0
  outer loop
    vertex 10.639629037355364 11.978937082877893 4.000000000000044
    vertex 11.204923615588774 11.259291031224041 4.6529446962040307e-14
    vertex 11.204923615588774 11.259291031224041 4.000000000000044
  endloop
endfacet
facet normal -0.7863935059632042 -0.6177258726805117 0.0
  outer loop
    vertex 11.204923615588774 11.259291031224041 4.6529446962040307e-14
    vertex 10.639629037355364 11.978937082877893 4.000000000000044
    vertex 10.639629037355364 11.978937082877893 4.6529446962040307e-14
  endloop
endfacet
facet normal 0.0 -1.0 0.0
  outer loop
    vertex 10.639629037355364 11.978937082877893 4.6529446962040307e-14
    vertex 8.674420285206912 11.978937082877927 0.5511112605664397
    vertex 8.286191717553129 11.978937082877927 0.5000000000000421
  endloop
endfacet
facet normal 0.0 -1.0 0.0
  outer loop
    vertex 8.674420285206912 11.978937082877927 0.5511112605664397
    vertex 10.639629037355364 11.978937082877893 4.6529446962040307e-14
    vertex 9.036191717553127 11.978937082877927 0.7009618943233845
  endloop
endfacet
facet normal 0.0 -1.0 0.0
  outer loop
    vertex 9.036191717553127 11.978937082877927 0.7009618943233845
    vertex 10.639629037355364 11.978937082877893 4.6529446962040307e-14
    vertex 9.34685188933295 11.978937082877927 0.9393398282202216
  endloop
endfacet
facet normal 0.0 -1.0 0.0
  outer loop
    vertex 9.34685188933295 11.978937082877927 0.9393398282202216
    vertex 10.639629037355364 11.978937082877893 4.6529446962040307e-14
    vertex 9.585229823229787 11.978937082877927 1.250000000000043
  endloop
endfacet
facet normal 0.0 -1.0 0.0
  outer loop
    vertex 9.585229823229787 11.978937082877927 1.250000000000043
    vertex 10.639629037355364 11.978937082877893 4.6529446962040307e-14
    vertex 9.735080456986728 11.978937082877927 1.6117714323462626
  endloop
endfacet
facet normal 0.0 -1.0 0.0
  outer loop
    vertex 9.735080456986728 11.978937082877927 1.6117714323462626
    vertex 10.639629037355364 11.978937082877893 4.6529446962040307e-14
    vertex 10.639629037355364 11.978937082877893 4.000000000000044
  endloop
endfacet
facet normal 0.0 -1.0 0.0
  outer loop
    vertex 9.735080456986728 11.978937082877927 1.6117714323462626
    vertex 10.639629037355364 11.978937082877893 4.000000000000044
    vertex 9.786191717553134 11.978937082877927 2.0000000000000444
  endloop
endfacet
facet normal 0.0 -1.0 0.0
  outer loop
    vertex 9.786191717553134 11.978937082877927 2.0000000000000444
    vertex 10.639629037355364 11.978937082877893 4.000000000000044
    vertex 9.73508045698674 11.978937082877927 2.3882285676538264
  endloop
endfacet
facet normal 0.0 -1.0 0.0
  outer loop
    vertex 9.73508045698674 11.978937082877927 2.3882285676538264
    vertex 10.639629037355364 11.978937082877893 4.000000000000044
    vertex 9.585229823229787 11.978937082877927 2.750000000000046
  endloop
endfacet
facet normal 0.0 -1.0 0.0
  outer loop
    vertex 9.585229823229787 11.978937082877927 2.750000000000046
    vertex 10.639629037355364 11.978937082877893 4.000000000000044
    vertex 9.34685188933295 11.978937082877927 3.0606601717798676
  endloop
endfacet
facet normal 0.0 -1.0 0.0
  outer loop
    vertex 9.34685188933295 11.978937082877927 3.0606601717798676
    vertex 10.639629037355364 11.978937082877893 4.000000000000044
    vertex 9.036191717553132 11.978937082877927 3.299038105676705
  endloop
endfacet
facet normal 0.0 -1.0 0.0
  outer loop
    vertex 9.036191717553132 11.978937082877927 3.299038105676705
    vertex 10.639629037355364 11.978937082877893 4.000000000000044
    vertex 8.674420285206912 11.978937082877927 3.4488887394336496
  endloop
endfacet
facet normal 0.0 -1.0 0.0
  outer loop
    vertex 8.674420285206912 11.978937082877927 3.4488887394336496
    vertex 10.639629037355364 11.978937082877893 4.000000000000044
    vertex 8.286191717553129 11.978937082877927 3.500000000000048
  endloop
endfacet
facet normal 0.0 -1.0 0.0
  outer loop
    vertex 5.2861917175531286 11.978937082877893 4.511946372076636e-14
    vertex 6.987153611876467 11.978937082877927 1.2500000000000435
    vertex 5.2861917175531286 11.978937082877893 4.000000000000044
  endloop
endfacet
facet normal 0.0 -1.0 0.0
  outer loop
    vertex 6.987153611876467 11.978937082877927 1.2500000000000435
    vertex 5.2861917175531286 11.978937082877893 4.511946372076636e-14
    vertex 7.225531545773304 11.978937082877927 0.9393398282202216
  endloop
endfacet
facet normal 0.0 -1.0 0.0
  outer loop
    vertex 7.225531545773304 11.978937082877927 0.9393398282202216
    vertex 5.2861917175531286 11.978937082877893 4.511946372076636e-14
    vertex 7.536191717553124 11.978937082877927 0.7009618943233846
  endloop
endfacet
facet normal 0.0 -1.0 0.0
  outer loop
    vertex 7.536191717553124 11.978937082877927 0.7009618943233846
    vertex 5.2861917175531286 11.978937082877893 4.511946372076636e-14
    vertex 7.897963149899344 11.978937082877927 0.5511112605664399
  endloop
endfacet
facet normal 0.0 -1.0 0.0
  outer loop
    vertex 7.897963149899344 11.978937082877927 0.5511112605664399
    vertex 5.2861917175531286 11.978937082877893 4.511946372076636e-14
    vertex 10.639629037355364 11.978937082877893 4.6529446962040307e-14
  endloop
endfacet
facet normal 0.0 -1.0 0.0
  outer loop
    vertex 7.897963149899344 11.978937082877927 0.5511112605664399
    vertex 10.639629037355364 11.978937082877893 4.6529446962040307e-14
    vertex 8.286191717553129 11.978937082877927 0.5000000000000421
  endloop
endfacet
facet normal 0.0 -1.0 0.0
  outer loop
    vertex 5.2861917175531286 11.978937082877893 4.000000000000044
    vertex 6.987153611876467 11.978937082877927 1.2500000000000435
    vertex 6.837302978119526 11.978937082877927 1.6117714323462629
  endloop
endfacet
facet normal 0.0 -1.0 0.0
  outer loop
    vertex 5.2861917175531286 11.978937082877893 4.000000000000044
    vertex 6.837302978119526 11.978937082877927 1.6117714323462629
    vertex 6.786191717553125 11.978937082877927 2.000000000000045
  endloop
endfacet
facet normal 0.0 -1.0 0.0
  outer loop
    vertex 5.2861917175531286 11.978937082877893 4.000000000000044
    vertex 6.786191717553125 11.978937082877927 2.000000000000045
    vertex 6.837302978119526 11.978937082877927 2.388228567653828
  endloop
endfacet
facet normal 0.0 -1.0 0.0
  outer loop
    vertex 5.2861917175531286 11.978937082877893 4.000000000000044
    vertex 6.837302978119526 11.978937082877927 2.388228567653828
    vertex 6.987153611876467 11.978937082877927 2.750000000000047
  endloop
endfacet
facet normal 0.0 -1.0 0.0
  outer loop
    vertex 5.2861917175531286 11.978937082877893 4.000000000000044
    vertex 6.987153611876467 11.978937082877927 2.750000000000047
    vertex 7.225531545773304 11.978937082877927 3.0606601717798685
  endloop
endfacet
facet normal 0.0 -1.0 0.0
  outer loop
    vertex 5.2861917175531286 11.978937082877893 4.000000000000044
    vertex 7.225531545773304 11.978937082877927 3.0606601717798685
    vertex 7.536191717553129 11.978937082877927 3.299038105676706
  endloop
endfacet
facet normal 0.0 -1.0 0.0
  outer loop
    vertex 5.2861917175531286 11.978937082877893 4.000000000000044
    vertex 7.536191717553129 11.978937082877927 3.299038105676706
    vertex 7.89796314989935 11.978937082877927 3.44888873943365
  endloop
endfacet
facet normal 0.0 -1.0 0.0
  outer loop
    vertex 5.2861917175531286 11.978937082877893 4.000000000000044
    vertex 7.89796314989935 11.978937082877927 3.44888873943365
    vertex 8.286191717553129 11.978937082877927 3.500000000000048
  endloop
endfacet
facet normal 0.0 -1.0 0.0
  outer loop
    vertex 5.2861917175531286 11.978937082877893 4.000000000000044
    vertex 8.286191717553129 11.978937082877927 3.500000000000048
    vertex 10.639629037355364 11.978937082877893 4.000000000000044
  endloop
endfacet
facet normal 0.6087614290087162 -0.0 0.7933533402912388
  outer loop
    vertex 21.536191717553173 11.978937082877872 0.7009618943233846
    vertex 21.22553154577335 17.478937082877888 0.9393398282202216
    vertex 21.22553154577335 11.978937082877872 0.9393398282202216
  endloop
endfacet
facet normal 0.6087614290087162 -0.0 0.7933533402912388
  outer loop
    vertex 21.22553154577335 17.478937082877888 0.9393398282202216
    vertex 21.536191717553173 11.978937082877872 0.7009618943233846
    vertex 21.536191717553173 17.478937082877888 0.7009618943233846
  endloop
endfacet
facet normal 0.7933533402912347 -0.0 0.6087614290087214
  outer loop
    vertex 21.22553154577335 17.478937082877888 0.9393398282202216
    vertex 20.98715361187651 11.978937082877872 1.2500000000000435
    vertex 21.22553154577335 11.978937082877872 0.9393398282202216
  endloop
endfacet
facet normal 0.7933533402912347 -0.0 0.6087614290087214
  outer loop
    vertex 20.98715361187651 11.978937082877872 1.2500000000000435
    vertex 21.22553154577335 17.478937082877888 0.9393398282202216
    vertex 20.98715361187651 17.478937082877888 1.2500000000000435
  endloop
endfacet
facet normal 0.9238795325112903 -0.0 0.38268343236508157
  outer loop
    vertex 20.98715361187651 17.478937082877888 1.2500000000000435
    vertex 20.83730297811957 11.978937082877872 1.6117714323462629
    vertex 20.98715361187651 11.978937082877872 1.2500000000000435
  endloop
endfacet
facet normal 0.9238795325112903 -0.0 0.38268343236508157
  outer loop
    vertex 20.83730297811957 11.978937082877872 1.6117714323462629
    vertex 20.98715361187651 17.478937082877888 1.2500000000000435
    vertex 20.83730297811957 17.478937082877888 1.6117714323462629
  endloop
endfacet
facet normal 0.9914448613738114 -0.0 0.13052619222004438
  outer loop
    vertex 20.83730297811957 17.478937082877888 1.6117714323462629
    vertex 20.786191717553177 11.978937082877872 2.000000000000045
    vertex 20.83730297811957 11.978937082877872 1.6117714323462629
  endloop
endfacet
facet normal 0.9914448613738114 -0.0 0.13052619222004438
  outer loop
    vertex 20.786191717553177 11.978937082877872 2.000000000000045
    vertex 20.83730297811957 17.478937082877888 1.6117714323462629
    vertex 20.786191717553177 17.478937082877888 2.000000000000045
  endloop
endfacet
facet normal 0.9914448613738114 -0.0 -0.130526192220044
  outer loop
    vertex 20.786191717553177 17.478937082877888 2.000000000000045
    vertex 20.83730297811957 11.978937082877872 2.388228567653828
    vertex 20.786191717553177 11.978937082877872 2.000000000000045
  endloop
endfacet
facet normal 0.9914448613738114 -0.0 -0.130526192220044
  outer loop
    vertex 20.83730297811957 11.978937082877872 2.388228567653828
    vertex 20.786191717553177 17.478937082877888 2.000000000000045
    vertex 20.83730297811957 17.478937082877888 2.388228567653828
  endloop
endfacet
facet normal 0.9238795325112901 -0.0 -0.38268343236508184
  outer loop
    vertex 20.83730297811957 17.478937082877888 2.388228567653828
    vertex 20.98715361187651 11.978937082877872 2.750000000000047
    vertex 20.83730297811957 11.978937082877872 2.388228567653828
  endloop
endfacet
facet normal 0.9238795325112901 -0.0 -0.38268343236508184
  outer loop
    vertex 20.98715361187651 11.978937082877872 2.750000000000047
    vertex 20.83730297811957 17.478937082877888 2.388228567653828
    vertex 20.98715361187651 17.478937082877888 2.750000000000047
  endloop
endfacet
facet normal 0.7933533402912342 -0.0 -0.6087614290087219
  outer loop
    vertex 20.98715361187651 17.478937082877888 2.750000000000047
    vertex 21.22553154577335 11.978937082877872 3.0606601717798685
    vertex 20.98715361187651 11.978937082877872 2.750000000000047
  endloop
endfacet
facet normal 0.7933533402912342 -0.0 -0.6087614290087219
  outer loop
    vertex 21.22553154577335 11.978937082877872 3.0606601717798685
    vertex 20.98715361187651 17.478937082877888 2.750000000000047
    vertex 21.22553154577335 17.478937082877888 3.0606601717798685
  endloop
endfacet
facet normal 0.6087614290087168 0.0 -0.7933533402912384
  outer loop
    vertex 21.536191717553173 17.478937082877888 3.299038105676706
    vertex 21.22553154577335 11.978937082877872 3.0606601717798685
    vertex 21.22553154577335 17.478937082877888 3.0606601717798685
  endloop
endfacet
facet normal 0.6087614290087168 0.0 -0.7933533402912384
  outer loop
    vertex 21.22553154577335 11.978937082877872 3.0606601717798685
    vertex 21.536191717553173 17.478937082877888 3.299038105676706
    vertex 21.536191717553173 11.978937082877872 3.299038105676706
  endloop
endfacet
facet normal 0.38268343236508595 0.0 -0.9238795325112884
  outer loop
    vertex 21.897963149899397 17.478937082877888 3.44888873943365
    vertex 21.536191717553173 11.978937082877872 3.299038105676706
    vertex 21.536191717553173 17.478937082877888 3.299038105676706
  endloop
endfacet
facet normal 0.38268343236508595 0.0 -0.9238795325112884
  outer loop
    vertex 21.536191717553173 11.978937082877872 3.299038105676706
    vertex 21.897963149899397 17.478937082877888 3.44888873943365
    vertex 21.897963149899397 11.978937082877872 3.44888873943365
  endloop
endfacet
facet normal 0.13052619222005168 0.0 -0.9914448613738105
  outer loop
    vertex 22.28619171755318 17.478937082877888 3.500000000000048
    vertex 21.897963149899397 11.978937082877872 3.44888873943365
    vertex 21.897963149899397 17.478937082877888 3.44888873943365
  endloop
endfacet
facet normal 0.13052619222005168 0.0 -0.9914448613738105
  outer loop
    vertex 21.897963149899397 11.978937082877872 3.44888873943365
    vertex 22.28619171755318 17.478937082877888 3.500000000000048
    vertex 22.28619171755318 11.978937082877872 3.500000000000048
  endloop
endfacet
facet normal -0.1305261922200516 0.0 -0.9914448613738105
  outer loop
    vertex 22.674420285206967 17.478937082877888 3.4488887394336496
    vertex 22.28619171755318 11.978937082877872 3.500000000000048
    vertex 22.28619171755318 17.478937082877888 3.500000000000048
  endloop
endfacet
facet normal -0.1305261922200516 0.0 -0.9914448613738105
  outer loop
    vertex 22.28619171755318 11.978937082877872 3.500000000000048
    vertex 22.674420285206967 17.478937082877888 3.4488887394336496
    vertex 22.674420285206967 11.978937082877872 3.4488887394336496
  endloop
endfacet
facet normal -0.3826834323650885 0.0 -0.9238795325112873
  outer loop
    vertex 23.036191717553187 17.478937082877888 3.299038105676705
    vertex 22.674420285206967 11.978937082877872 3.4488887394336496
    vertex 22.674420285206967 17.478937082877888 3.4488887394336496
  endloop
endfacet
facet normal -0.3826834323650885 0.0 -0.9238795325112873
  outer loop
    vertex 22.674420285206967 11.978937082877872 3.4488887394336496
    vertex 23.036191717553187 17.478937082877888 3.299038105676705
    vertex 23.036191717553187 11.978937082877872 3.299038105676705
  endloop
endfacet
facet normal -0.6087614290087312 0.0 -0.7933533402912272
  outer loop
    vertex 23.346851889333 17.478937082877888 3.0606601717798676
    vertex 23.036191717553187 11.978937082877872 3.299038105676705
    vertex 23.036191717553187 17.478937082877888 3.299038105676705
  endloop
endfacet
facet normal -0.6087614290087312 0.0 -0.7933533402912272
  outer loop
    vertex 23.036191717553187 11.978937082877872 3.299038105676705
    vertex 23.346851889333 17.478937082877888 3.0606601717798676
    vertex 23.346851889333 11.978937082877872 3.0606601717798676
  endloop
endfacet
facet normal -0.7933533402912342 0.0 -0.6087614290087219
  outer loop
    vertex 23.346851889333 17.478937082877888 3.0606601717798676
    vertex 23.585229823229838 11.978937082877872 2.750000000000046
    vertex 23.346851889333 11.978937082877872 3.0606601717798676
  endloop
endfacet
facet normal -0.7933533402912342 0.0 -0.6087614290087219
  outer loop
    vertex 23.585229823229838 11.978937082877872 2.750000000000046
    vertex 23.346851889333 17.478937082877888 3.0606601717798676
    vertex 23.585229823229838 17.478937082877888 2.750000000000046
  endloop
endfacet
facet normal -0.9238795325112801 0.0 -0.38268343236510566
  outer loop
    vertex 23.585229823229838 17.478937082877888 2.750000000000046
    vertex 23.73508045698679 11.978937082877872 2.3882285676538264
    vertex 23.585229823229838 11.978937082877872 2.750000000000046
  endloop
endfacet
facet normal -0.9238795325112801 0.0 -0.38268343236510566
  outer loop
    vertex 23.73508045698679 11.978937082877872 2.3882285676538264
    vertex 23.585229823229838 17.478937082877888 2.750000000000046
    vertex 23.73508045698679 17.478937082877888 2.3882285676538264
  endloop
endfacet
facet normal -0.9914448613738114 0.0 -0.1305261922200445
  outer loop
    vertex 23.73508045698679 17.478937082877888 2.3882285676538264
    vertex 23.786191717553184 11.978937082877872 2.0000000000000444
    vertex 23.73508045698679 11.978937082877872 2.3882285676538264
  endloop
endfacet
facet normal -0.9914448613738114 0.0 -0.1305261922200445
  outer loop
    vertex 23.786191717553184 11.978937082877872 2.0000000000000444
    vertex 23.73508045698679 17.478937082877888 2.3882285676538264
    vertex 23.786191717553184 17.478937082877888 2.0000000000000444
  endloop
endfacet
facet normal -0.9914448613738114 0.0 0.13052619222004438
  outer loop
    vertex 23.786191717553184 17.478937082877888 2.0000000000000444
    vertex 23.73508045698679 11.978937082877872 1.6117714323462626
    vertex 23.786191717553184 11.978937082877872 2.0000000000000444
  endloop
endfacet
facet normal -0.9914448613738114 0.0 0.13052619222004438
  outer loop
    vertex 23.73508045698679 11.978937082877872 1.6117714323462626
    vertex 23.786191717553184 17.478937082877888 2.0000000000000444
    vertex 23.73508045698679 17.478937082877888 1.6117714323462626
  endloop
endfacet
facet normal -0.9238795325112801 0.0 0.3826834323651059
  outer loop
    vertex 23.73508045698679 17.478937082877888 1.6117714323462626
    vertex 23.585229823229838 11.978937082877872 1.250000000000043
    vertex 23.73508045698679 11.978937082877872 1.6117714323462626
  endloop
endfacet
facet normal -0.9238795325112801 0.0 0.3826834323651059
  outer loop
    vertex 23.585229823229838 11.978937082877872 1.250000000000043
    vertex 23.73508045698679 17.478937082877888 1.6117714323462626
    vertex 23.585229823229838 17.478937082877888 1.250000000000043
  endloop
endfacet
facet normal -0.7933533402912342 0.0 0.608761429008722
  outer loop
    vertex 23.585229823229838 17.478937082877888 1.250000000000043
    vertex 23.346851889333 11.978937082877872 0.9393398282202216
    vertex 23.585229823229838 11.978937082877872 1.250000000000043
  endloop
endfacet
facet normal -0.7933533402912342 0.0 0.608761429008722
  outer loop
    vertex 23.346851889333 11.978937082877872 0.9393398282202216
    vertex 23.585229823229838 17.478937082877888 1.250000000000043
    vertex 23.346851889333 17.478937082877888 0.9393398282202216
  endloop
endfacet
facet normal -0.6087614290087303 -0.0 0.7933533402912278
  outer loop
    vertex 23.346851889333 11.978937082877872 0.9393398282202216
    vertex 23.036191717553187 17.478937082877888 0.7009618943233845
    vertex 23.036191717553187 11.978937082877872 0.7009618943233845
  endloop
endfacet
facet normal -0.6087614290087303 -0.0 0.7933533402912278
  outer loop
    vertex 23.036191717553187 17.478937082877888 0.7009618943233845
    vertex 23.346851889333 11.978937082877872 0.9393398282202216
    vertex 23.346851889333 17.478937082877888 0.9393398282202216
  endloop
endfacet
facet normal -0.38268343236508934 -0.0 0.9238795325112871
  outer loop
    vertex 23.036191717553187 11.978937082877872 0.7009618943233845
    vertex 22.674420285206967 17.478937082877888 0.5511112605664397
    vertex 22.674420285206967 11.978937082877872 0.5511112605664397
  endloop
endfacet
facet normal -0.38268343236508934 -0.0 0.9238795325112871
  outer loop
    vertex 22.674420285206967 17.478937082877888 0.5511112605664397
    vertex 23.036191717553187 11.978937082877872 0.7009618943233845
    vertex 23.036191717553187 17.478937082877888 0.7009618943233845
  endloop
endfacet
facet normal -0.13052619222004985 -0.0 0.9914448613738107
  outer loop
    vertex 22.674420285206967 11.978937082877872 0.5511112605664397
    vertex 22.28619171755318 17.478937082877888 0.5000000000000421
    vertex 22.28619171755318 11.978937082877872 0.5000000000000421
  endloop
endfacet
facet normal -0.13052619222004985 -0.0 0.9914448613738107
  outer loop
    vertex 22.28619171755318 17.478937082877888 0.5000000000000421
    vertex 22.674420285206967 11.978937082877872 0.5511112605664397
    vertex 22.674420285206967 17.478937082877888 0.5511112605664397
  endloop
endfacet
facet normal 0.1305261922200521 -0.0 0.9914448613738105
  outer loop
    vertex 22.28619171755318 11.978937082877872 0.5000000000000421
    vertex 21.897963149899397 17.478937082877888 0.5511112605664399
    vertex 21.897963149899397 11.978937082877872 0.5511112605664399
  endloop
endfacet
facet normal 0.1305261922200521 -0.0 0.9914448613738105
  outer loop
    vertex 21.897963149899397 17.478937082877888 0.5511112605664399
    vertex 22.28619171755318 11.978937082877872 0.5000000000000421
    vertex 22.28619171755318 17.478937082877888 0.5000000000000421
  endloop
endfacet
facet normal 0.3826834323650867 -0.0 0.9238795325112881
  outer loop
    vertex 21.897963149899397 11.978937082877872 0.5511112605664399
    vertex 21.536191717553173 17.478937082877888 0.7009618943233846
    vertex 21.536191717553173 11.978937082877872 0.7009618943233846
  endloop
endfacet
facet normal 0.3826834323650867 -0.0 0.9238795325112881
  outer loop
    vertex 21.536191717553173 17.478937082877888 0.7009618943233846
    vertex 21.897963149899397 11.978937082877872 0.5511112605664399
    vertex 21.897963149899397 17.478937082877888 0.5511112605664399
  endloop
endfacet
facet normal 0.13052619222005118 -0.0 0.9914448613738105
  outer loop
    vertex 8.286191717553129 11.978937082877927 0.5000000000000421
    vertex 7.897963149899344 17.478937082877888 0.5511112605664399
    vertex 7.897963149899344 11.978937082877927 0.5511112605664399
  endloop
endfacet
facet normal 0.13052619222005118 -0.0 0.9914448613738105
  outer loop
    vertex 7.897963149899344 17.478937082877888 0.5511112605664399
    vertex 8.286191717553129 11.978937082877927 0.5000000000000421
    vertex 8.286191717553129 17.478937082877888 0.5000000000000421
  endloop
endfacet
facet normal 0.38268343236508934 -0.0 0.9238795325112871
  outer loop
    vertex 7.897963149899344 11.978937082877927 0.5511112605664399
    vertex 7.536191717553124 17.478937082877888 0.7009618943233846
    vertex 7.536191717553124 11.978937082877927 0.7009618943233846
  endloop
endfacet
facet normal 0.38268343236508934 -0.0 0.9238795325112871
  outer loop
    vertex 7.536191717553124 17.478937082877888 0.7009618943233846
    vertex 7.897963149899344 11.978937082877927 0.5511112605664399
    vertex 7.897963149899344 17.478937082877888 0.5511112605664399
  endloop
endfacet
facet normal 0.6087614290087231 -0.0 0.7933533402912335
  outer loop
    vertex 7.536191717553124 11.978937082877927 0.7009618943233846
    vertex 7.225531545773304 17.478937082877888 0.9393398282202216
    vertex 7.225531545773304 11.978937082877927 0.9393398282202216
  endloop
endfacet
facet normal 0.6087614290087231 -0.0 0.7933533402912335
  outer loop
    vertex 7.225531545773304 17.478937082877888 0.9393398282202216
    vertex 7.536191717553124 11.978937082877927 0.7009618943233846
    vertex 7.536191717553124 17.478937082877888 0.7009618943233846
  endloop
endfacet
facet normal 0.7933533402912347 -0.0 0.6087614290087214
  outer loop
    vertex 7.225531545773304 17.478937082877888 0.9393398282202216
    vertex 6.987153611876467 11.978937082877927 1.2500000000000435
    vertex 7.225531545773304 11.978937082877927 0.9393398282202216
  endloop
endfacet
facet normal 0.7933533402912347 -0.0 0.6087614290087214
  outer loop
    vertex 6.987153611876467 11.978937082877927 1.2500000000000435
    vertex 7.225531545773304 17.478937082877888 0.9393398282202216
    vertex 6.987153611876467 17.478937082877888 1.2500000000000435
  endloop
endfacet
facet normal 0.9238795325112903 -0.0 0.3826834323650815
  outer loop
    vertex 6.987153611876467 17.478937082877888 1.2500000000000435
    vertex 6.837302978119526 11.978937082877927 1.6117714323462629
    vertex 6.987153611876467 11.978937082877927 1.2500000000000435
  endloop
endfacet
facet normal 0.9238795325112903 -0.0 0.3826834323650815
  outer loop
    vertex 6.837302978119526 11.978937082877927 1.6117714323462629
    vertex 6.987153611876467 17.478937082877888 1.2500000000000435
    vertex 6.837302978119526 17.478937082877888 1.6117714323462629
  endloop
endfacet
facet normal 0.9914448613738096 -0.0 0.13052619222005854
  outer loop
    vertex 6.837302978119526 17.478937082877888 1.6117714323462629
    vertex 6.786191717553125 11.978937082877927 2.000000000000045
    vertex 6.837302978119526 11.978937082877927 1.6117714323462629
  endloop
endfacet
facet normal 0.9914448613738096 -0.0 0.13052619222005854
  outer loop
    vertex 6.786191717553125 11.978937082877927 2.000000000000045
    vertex 6.837302978119526 17.478937082877888 1.6117714323462629
    vertex 6.786191717553125 17.478937082877888 2.000000000000045
  endloop
endfacet
facet normal 0.9914448613738096 -0.0 -0.13052619222005818
  outer loop
    vertex 6.786191717553125 17.478937082877888 2.000000000000045
    vertex 6.837302978119526 11.978937082877927 2.388228567653828
    vertex 6.786191717553125 11.978937082877927 2.000000000000045
  endloop
endfacet
facet normal 0.9914448613738096 -0.0 -0.13052619222005818
  outer loop
    vertex 6.837302978119526 11.978937082877927 2.388228567653828
    vertex 6.786191717553125 17.478937082877888 2.000000000000045
    vertex 6.837302978119526 17.478937082877888 2.388228567653828
  endloop
endfacet
facet normal 0.9238795325112901 -0.0 -0.38268343236508184
  outer loop
    vertex 6.837302978119526 17.478937082877888 2.388228567653828
    vertex 6.987153611876467 11.978937082877927 2.750000000000047
    vertex 6.837302978119526 11.978937082877927 2.388228567653828
  endloop
endfacet
facet normal 0.9238795325112901 -0.0 -0.38268343236508184
  outer loop
    vertex 6.987153611876467 11.978937082877927 2.750000000000047
    vertex 6.837302978119526 17.478937082877888 2.388228567653828
    vertex 6.987153611876467 17.478937082877888 2.750000000000047
  endloop
endfacet
facet normal 0.7933533402912342 -0.0 -0.6087614290087219
  outer loop
    vertex 6.987153611876467 17.478937082877888 2.750000000000047
    vertex 7.225531545773304 11.978937082877927 3.0606601717798685
    vertex 6.987153611876467 11.978937082877927 2.750000000000047
  endloop
endfacet
facet normal 0.7933533402912342 -0.0 -0.6087614290087219
  outer loop
    vertex 7.225531545773304 11.978937082877927 3.0606601717798685
    vertex 6.987153611876467 17.478937082877888 2.750000000000047
    vertex 7.225531545773304 17.478937082877888 3.0606601717798685
  endloop
endfacet
facet normal 0.6087614290087167 0.0 -0.7933533402912383
  outer loop
    vertex 7.536191717553129 17.478937082877888 3.299038105676706
    vertex 7.225531545773304 11.978937082877927 3.0606601717798685
    vertex 7.225531545773304 17.478937082877888 3.0606601717798685
  endloop
endfacet
facet normal 0.6087614290087167 0.0 -0.7933533402912383
  outer loop
    vertex 7.225531545773304 11.978937082877927 3.0606601717798685
    vertex 7.536191717553129 17.478937082877888 3.299038105676706
    vertex 7.536191717553129 11.978937082877927 3.299038105676706
  endloop
endfacet
facet normal 0.38268343236508856 0.0 -0.9238795325112873
  outer loop
    vertex 7.89796314989935 17.478937082877888 3.44888873943365
    vertex 7.536191717553129 11.978937082877927 3.299038105676706
    vertex 7.536191717553129 17.478937082877888 3.299038105676706
  endloop
endfacet
facet normal 0.38268343236508856 0.0 -0.9238795325112873
  outer loop
    vertex 7.536191717553129 11.978937082877927 3.299038105676706
    vertex 7.89796314989935 17.478937082877888 3.44888873943365
    vertex 7.89796314989935 11.978937082877927 3.44888873943365
  endloop
endfacet
facet normal 0.13052619222005263 0.0 -0.9914448613738103
  outer loop
    vertex 8.286191717553129 17.478937082877888 3.500000000000048
    vertex 7.89796314989935 11.978937082877927 3.44888873943365
    vertex 7.89796314989935 17.478937082877888 3.44888873943365
  endloop
endfacet
facet normal 0.13052619222005263 0.0 -0.9914448613738103
  outer loop
    vertex 7.89796314989935 11.978937082877927 3.44888873943365
    vertex 8.286191717553129 17.478937082877888 3.500000000000048
    vertex 8.286191717553129 11.978937082877927 3.500000000000048
  endloop
endfacet
facet normal -0.13052619222005252 0.0 -0.9914448613738103
  outer loop
    vertex 8.674420285206912 17.478937082877888 3.4488887394336496
    vertex 8.286191717553129 11.978937082877927 3.500000000000048
    vertex 8.286191717553129 17.478937082877888 3.500000000000048
  endloop
endfacet
facet normal -0.13052619222005252 0.0 -0.9914448613738103
  outer loop
    vertex 8.286191717553129 11.978937082877927 3.500000000000048
    vertex 8.674420285206912 17.478937082877888 3.4488887394336496
    vertex 8.674420285206912 11.978937082877927 3.4488887394336496
  endloop
endfacet
facet normal -0.38268343236508856 0.0 -0.9238795325112873
  outer loop
    vertex 9.036191717553132 17.478937082877888 3.299038105676705
    vertex 8.674420285206912 11.978937082877927 3.4488887394336496
    vertex 8.674420285206912 17.478937082877888 3.4488887394336496
  endloop
endfacet
facet normal -0.38268343236508856 0.0 -0.9238795325112873
  outer loop
    vertex 8.674420285206912 11.978937082877927 3.4488887394336496
    vertex 9.036191717553132 17.478937082877888 3.299038105676705
    vertex 9.036191717553132 11.978937082877927 3.299038105676705
  endloop
endfacet
facet normal -0.6087614290087277 0.0 -0.7933533402912298
  outer loop
    vertex 9.34685188933295 17.478937082877888 3.0606601717798676
    vertex 9.036191717553132 11.978937082877927 3.299038105676705
    vertex 9.036191717553132 17.478937082877888 3.299038105676705
  endloop
endfacet
facet normal -0.6087614290087277 0.0 -0.7933533402912298
  outer loop
    vertex 9.036191717553132 11.978937082877927 3.299038105676705
    vertex 9.34685188933295 17.478937082877888 3.0606601717798676
    vertex 9.34685188933295 11.978937082877927 3.0606601717798676
  endloop
endfacet
facet normal -0.7933533402912342 0.0 -0.6087614290087219
  outer loop
    vertex 9.34685188933295 17.478937082877888 3.0606601717798676
    vertex 9.585229823229787 11.978937082877927 2.750000000000046
    vertex 9.34685188933295 11.978937082877927 3.0606601717798676
  endloop
endfacet
facet normal -0.7933533402912342 0.0 -0.6087614290087219
  outer loop
    vertex 9.585229823229787 11.978937082877927 2.750000000000046
    vertex 9.34685188933295 17.478937082877888 3.0606601717798676
    vertex 9.585229823229787 17.478937082877888 2.750000000000046
  endloop
endfacet
facet normal -0.9238795325112801 0.0 -0.38268343236510566
  outer loop
    vertex 9.585229823229787 17.478937082877888 2.750000000000046
    vertex 9.73508045698674 11.978937082877927 2.3882285676538264
    vertex 9.585229823229787 11.978937082877927 2.750000000000046
  endloop
endfacet
facet normal -0.9238795325112801 0.0 -0.38268343236510566
  outer loop
    vertex 9.73508045698674 11.978937082877927 2.3882285676538264
    vertex 9.585229823229787 17.478937082877888 2.750000000000046
    vertex 9.73508045698674 17.478937082877888 2.3882285676538264
  endloop
endfacet
facet normal -0.9914448613738114 0.0 -0.1305261922200445
  outer loop
    vertex 9.73508045698674 17.478937082877888 2.3882285676538264
    vertex 9.786191717553134 11.978937082877927 2.0000000000000444
    vertex 9.73508045698674 11.978937082877927 2.3882285676538264
  endloop
endfacet
facet normal -0.9914448613738114 0.0 -0.1305261922200445
  outer loop
    vertex 9.786191717553134 11.978937082877927 2.0000000000000444
    vertex 9.73508045698674 17.478937082877888 2.3882285676538264
    vertex 9.786191717553134 17.478937082877888 2.0000000000000444
  endloop
endfacet
facet normal -0.9914448613738077 0.0 0.13052619222007267
  outer loop
    vertex 9.786191717553134 17.478937082877888 2.0000000000000444
    vertex 9.735080456986728 11.978937082877927 1.6117714323462626
    vertex 9.786191717553134 11.978937082877927 2.0000000000000444
  endloop
endfacet
facet normal -0.9914448613738077 0.0 0.13052619222007267
  outer loop
    vertex 9.735080456986728 11.978937082877927 1.6117714323462626
    vertex 9.786191717553134 17.478937082877888 2.0000000000000444
    vertex 9.735080456986728 17.478937082877888 1.6117714323462626
  endloop
endfacet
facet normal -0.9238795325112903 0.0 0.38268343236508134
  outer loop
    vertex 9.735080456986728 17.478937082877888 1.6117714323462626
    vertex 9.585229823229787 11.978937082877927 1.250000000000043
    vertex 9.735080456986728 11.978937082877927 1.6117714323462626
  endloop
endfacet
facet normal -0.9238795325112903 0.0 0.38268343236508134
  outer loop
    vertex 9.585229823229787 11.978937082877927 1.250000000000043
    vertex 9.735080456986728 17.478937082877888 1.6117714323462626
    vertex 9.585229823229787 17.478937082877888 1.250000000000043
  endloop
endfacet
facet normal -0.7933533402912342 0.0 0.608761429008722
  outer loop
    vertex 9.585229823229787 17.478937082877888 1.250000000000043
    vertex 9.34685188933295 11.978937082877927 0.9393398282202216
    vertex 9.585229823229787 11.978937082877927 1.250000000000043
  endloop
endfacet
facet normal -0.7933533402912342 0.0 0.608761429008722
  outer loop
    vertex 9.34685188933295 11.978937082877927 0.9393398282202216
    vertex 9.585229823229787 17.478937082877888 1.250000000000043
    vertex 9.34685188933295 17.478937082877888 0.9393398282202216
  endloop
endfacet
facet normal -0.6087614290087199 -0.0 0.7933533402912357
  outer loop
    vertex 9.34685188933295 11.978937082877927 0.9393398282202216
    vertex 9.036191717553127 17.478937082877888 0.7009618943233845
    vertex 9.036191717553127 11.978937082877927 0.7009618943233845
  endloop
endfacet
facet normal -0.6087614290087199 -0.0 0.7933533402912357
  outer loop
    vertex 9.036191717553127 17.478937082877888 0.7009618943233845
    vertex 9.34685188933295 11.978937082877927 0.9393398282202216
    vertex 9.34685188933295 17.478937082877888 0.9393398282202216
  endloop
endfacet
facet normal -0.38268343236509433 -0.0 0.9238795325112849
  outer loop
    vertex 9.036191717553127 11.978937082877927 0.7009618943233845
    vertex 8.674420285206912 17.478937082877888 0.5511112605664397
    vertex 8.674420285206912 11.978937082877927 0.5511112605664397
  endloop
endfacet
facet normal -0.38268343236509433 -0.0 0.9238795325112849
  outer loop
    vertex 8.674420285206912 17.478937082877888 0.5511112605664397
    vertex 9.036191717553127 11.978937082877927 0.7009618943233845
    vertex 9.036191717553127 17.478937082877888 0.7009618943233845
  endloop
endfacet
facet normal -0.13052619222005074 -0.0 0.9914448613738105
  outer loop
    vertex 8.674420285206912 11.978937082877927 0.5511112605664397
    vertex 8.286191717553129 17.478937082877888 0.5000000000000421
    vertex 8.286191717553129 11.978937082877927 0.5000000000000421
  endloop
endfacet
facet normal -0.13052619222005074 -0.0 0.9914448613738105
  outer loop
    vertex 8.286191717553129 17.478937082877888 0.5000000000000421
    vertex 8.674420285206912 11.978937082877927 0.5511112605664397
    vertex 8.674420285206912 17.478937082877888 0.5511112605664397
  endloop
endfacet
endsolid alca_segura_sensor
